<svg xmlns="http://www.w3.org/2000/svg" viewBox="0 0 433.83 199.57"><defs><style>.cls-1{fill:#f21919;stroke:#0a5e2b;stroke-miterlimit:10;stroke-width:2px;}</style></defs><g id="Layer_2" data-name="Layer 2"><g id="Layer_1-2" data-name="Layer 1"><path class="cls-1" d="M49.37,83.75a11,11,0,0,0,.37,4.54c-.73-.11.59,1.31.64,2,.63,1-1.33.36.06,1.4.77.08-.09.18.15.48.1.12.09.16,0,.13-.12.49,1.35,2.68.84,3.25.43,1.43.66,1,.22,2.48.76,1.3,0,2.4.67,3.85.74,1.65-.35-2.1.64-1.07.21,1.71,1.1,4.3,1.46,6.09-.62.27.71.53-.09.72-.44.62.34-.26-.12,1.09.2.75-2.09,2.66-.5,2.79-.2.24.26,1.29.37.57-.21-.21.55-.38,0-.48,0-.1.44-.6,0-1-.43-.84.35,0,.22-.36,1.11-1.65-.24.54.29,1.09,0-.2.83-.57.38,0-.2.33-.9.56-.17.62.52-.06-.21.45.13.7.21,2.1-.32,1.74-.76,0-1.11-.18.08,1.44-.08,1.92.6,1.06-1,0-.19.76,2.3,1.7,1.08,8.9,3,9.43-.7.17.68.41.09.61s1,.35.69,0a2.11,2.11,0,0,0,.09-1c1.07.34-.72,1.48.24,1.61-1.78.22.1,2.76-1.32,2.72.28.62,0,4.14,1.1,3.5.12.4-1,.72-.15.84.63.05.33-1.63-.11-1.39-.25.11.85-1,.18-.68-.35,0-.32-1.56-.28-2.08,0-.81.27.8.52.41s-.08.5.17.47c.53.37.76,3.91,1.12,2.25.7-.13-.62-.5-.36-1.11.51-.14.44-.66.63-1,1,.87-.83,3.71-.25,4,1,.18.88-.72.92.44.19.53-.88,0-.94.39-.41.37-.58.4-.2.9,1.53-.73.26.37-.16.58.08,1.9.29.31.82.11.53,1.61.58-.76.42-1.18.8.19-.32,3.72,1.19,2.55,0,.33-.3.56.23.79s-.66.32.06.66c.3.32.73-.63.62,0-.37.65-.57.58.06,1.16.09.48.44-.66.37-.05.17.72-.1,2.78,1,2.17-2.22,1,0,4.31-.15,1.35,0-.95.42,1,.42,1.1.11.3-1,.47-.63.8.48.52.68-1,.88-.06.14-.31,0-.76.16-1s.46,1.49.61.27c0-.21,0-.4.09-.42.15-.27.33,1.16,0,1.1-.17-.21-.47,1.3-.51.87-.41-1.55-.39.25-.29.49-.29.68.79,1.75.43,2.49.18.72.8-.76.44.21-.24.41-.22.71,0,.76,1.3-.87.3-2.49.92-1.6.1.6.27.84,0,1.06.6.3-.39.06-.18.69.1,1,.54-.66.53.36.17.85.13,2.17.36,2.8.36.17-.6.21,0,.51.31.21-.4.73.16.87.23.34.7-.45.49,0-.16.25.22.29-.08.4-.38.46.21,1,.87.18.37,2.75.24,1.54,1.47.6.53.19-1.4,1.23-.19,1.14.26-.09.25-.3,0-.3s.48-.3.39,0c.13.49,1,1.15.63,1.81-.83.83-.15-.2-.4-.79-.57-.79-.23.34-.36.5-.35.07.69,1.11,1,2.07.62-.07.38,2.16,1,1.46.36-.34-.39,1.74,1,1.16-.91,1.21,1.48,2.19,2.24,2.65-.06.12,1,.41,1,.47.62.52-4-1.49-3-.2,1.24,2,4.84,2.16,6.52,4-.22,1.33-.31,2.49-.41,3.53-19.54,6.56-27.69-14-33.39-27.18-.52,0-3.51-12-4.07-9a25.85,25.85,0,0,1-18,10.37c-3.57.12-4.36-.21-4.37,3.21-.15,1.42.14.12.68.51-.61.51-.24,1-.21,1.84.29,1.15-.62.08-.89,1-.52,1,.73-.24.8.17-1.28.78.49.1-.21,1.58a3.32,3.32,0,0,1-.07,1.21c.63-.09-1.15,2-.65.17,0,0,.54-2,.27-1.6-1.3,0,1.1-4.59-1-3.93-1.14.79-.64.9-.11.48.32.92-.61.16-.45,1,0,.52.83-.32.54.23.06.22-.78,3.16-.31,3,.27.06.27.07,0,.22s.21.52.09,1.27c.45,1.31-.32.18-.94.88-.78.8-.58-.25-1.2.4-.7.93.42.07.54.44.43.63.24-.16.66,0,.31.47-.68,2,.11,1.45.26.59-.23,2.09-.49,2.74-.52.26,0-1.83-.57-1.84-.56.62.15,2.08-.41,2.59.17.13.63-.35.3.32-.3.49.68.32,0,.81-.78,1.34-.05,4.71.73,2.65,1.13.31-2.23,3.61,0,2.41.49.28-1.09,1-.25,2.3,0-.46.63-2.57.8-1.45,0,.53-.54.28-.47,1s.37-.64.42.1c-.09,1.62-.67,4.28-.43,6.7-.16,1.16-.23.48-1,1.36-.4.54.37-1.77-.25-1.35-.36-5.29-.67,3.19-.24,4.4.44,2.38-1.41,11.22,3.37,7.82.15.45.47,1.39.62,1.85-2.8,12.43-12.34-2.23-12.87-7.83C-3.37,143,2.73,99,5.5,55.72,3.55,54,4,50.6,3.37,48.24c-.91-6.78,16.7-2.67,21.31-3.08,21.2-3.81,20,25.7,24.3,37.94C48.62,83,49.33,84.54,49.37,83.75ZM14.2,73.22a.23.23,0,0,0-.07-.23C14,72.81,14.16,73.37,14.2,73.22Zm1.2,76.51c.46.12.1-.82.18-1C15.73,146,14.64,148.89,15.4,149.73Zm.1,37.09.11.44C15.81,188.53,15.27,187.27,15.5,186.82Zm0-5c.28-.18.09.34-.08.17C15.45,181.94,15.49,181.87,15.54,181.8Zm.26-20.62c0-.14.06-.27,0-.29C15.59,160.85,15.49,161.78,15.8,161.18Zm0,7.37c.13-.06.26.28.2.32S15.69,168.61,15.84,168.55Zm.09,1.26c.06,0,.18-.32,0-.26S15.83,169.81,15.93,169.81Zm0,18.89c.15-.45.29-.26.15.21C15.93,189.53,15.85,189,16,188.7Zm0-.69a.26.26,0,0,1,.06-.21C16.17,187.64,16,188.38,15.94,188Zm.24-17.53c-.47.2,0-.35.15-.17S16.28,170.45,16.18,170.48Zm.77,7.87s0,.54-.12.43S16.85,178.23,17,178.35Zm.94-18.84c.87.82-1.15,1.1-.57.5C17.47,160,17.73,158.57,17.89,159.51Zm1,14.73c-.38-3.68-1.65-9.14-1.19-12.89,0,.11,0,.16.28.09s.12.18-.05.22c-.19.26,0,2.58.61,2.23.39.08-.43.14-.07.41.11.13.12.2,0,.19-.38,0,.08.55-.16.54C18.34,167,19.52,172.85,18.87,174.24Zm-1-100.89c.24.08.24.08,0,0C17.5,73,17.52,73.28,17.91,73.35Zm-.23,88Zm0,0c0-.23,0-.52,0-.74C18.61,160.17,17.76,161,17.68,161.34ZM18,150.93c.13,0,.26,0,.28,0C18.54,150.49,17.14,150.54,18,150.93Zm2,7.7c-.38.46-.63,2.87-1.22,1.76.51-.79-.79-.22.2-1.24C18.78,158.82,19.61,158.48,20,158.63Zm-.75,16.15c.38.28-.55.56-.27.11C19.09,174.73,19.16,174.71,19.26,174.78Zm.56-12.32c0,.18-.44,1.09-.38.23C19.44,162.54,19.77,162.34,19.82,162.46Zm-.13-12.9c.27-.18.1.33-.09.16A.33.33,0,0,1,19.69,149.56ZM20,129c-.39.69-.68,2.71.51.84C20.94,129.25,20.32,129.07,20,129Zm-.14,32.87c.35-.45.18.55-.1.31A.44.44,0,0,1,19.82,161.88Zm0-4.93c.19-.16.05.59-.05.22A.26.26,0,0,1,19.8,157Zm.28,3.13a.26.26,0,0,1,0,.25C19.78,160.72,20,159.85,20.08,160.08Zm.38-10.55c1.2-1.2-.59,1.78-.15.44C20.45,149.79,20.51,149.58,20.46,149.53Zm.4,8.79c.44-.14,0,.14-.13.12S20.69,158.39,20.86,158.32Zm1.08-45.53c.16-.05,0-.39-.12-.34S21.79,112.85,21.94,112.79Zm2.4-18.69c0,.33-.39,2.31.22.92s.45-.6,1.06-.42a16.89,16.89,0,0,0-1.25,2.8,7.14,7.14,0,0,1,.33.76,5.76,5.76,0,0,1,.53-1c-.11.61-.92,4.93-1,2.65a6.07,6.07,0,0,0,0-2.08c-1.64,4.5-1.95,9.94-2.45,14.12-.09.56,1.19-1.44,1.24-1.7.66-.84.35,1.65-.05,2.28.43.65-.39,1.59-.35,1.79a17.12,17.12,0,0,1-.75,3.64c.4,1.28.17-.81,1-.61.55-.12-.16,1.62-.37,1.72-.52,0,.31.39.13.35-.08.25-.53,1.53-.38,1.73-.82,1.45,0,1.71.74,1.84-1.56,2-.25.65-.37,1.63-.15.52-.77,2.51.07,1.36.75,0-.7,1,0,.91.37-.26-1.44,2-.23,1.3,1.22-1.21,12.07-7.47,13.37-9.31-2.15-10.22-5.64-19-9.08-29.21C26.07,85.14,25.76,93,24.34,94.1Zm-2.25,63.65c-.06.12-.15.18-.2.16S22.28,157.41,22.09,157.75Zm.64-5.19c.14-.16.31-.08.09.08S22.57,152.75,22.73,152.56Zm0-3.78c.1-.33.23-.14.11.14S22.67,149.12,22.76,148.78Zm1.7-22.28c.05.11-.27.43-.35.19S24.38,126.35,24.46,126.5Zm-.21-14.92c-.21-.32.51-2.16.49-1.13C24.72,110.83,24.36,111.62,24.25,111.58Zm.23-13.22c0,.1.13.15.19.1C25,98.25,24.38,98,24.48,98.36Zm.83,20.94c-.08.26-.34.72-.42,1C24.21,121.05,25.2,119.21,25.31,119.3Zm-.41-1.15a2,2,0,0,0,.13-.63C26.11,115,24.72,120.94,24.9,118.15Zm.2-24.68c.29-.14.49.23.17.3S24.79,93.57,25.1,93.47Zm.25,28.1c.06.15-.38.13-.39.07S25.33,121.44,25.35,121.57Zm.17-8.57c.05,1.76-.81-.26,0-.84C26,112,25.49,112.77,25.52,113Zm.07-5c.42-1.73.41,1.47-.11,1.39S25.75,108.25,25.59,108Zm.19,2c.68.49-.27,2.46-.4,1.66.18-.32,0-1,.21-1.33Zm-.14-14.7c.31-.41.17.22,0,.23S25.41,95.62,25.64,95.35Zm.28,11.05c0,.19-.25.39-.3.23S25.9,106.17,25.92,106.4Zm.18-1.93c.1.35-.38,2-.4,1A3.53,3.53,0,0,1,26.1,104.47ZM26.38,99c.09.18-.41.38-.48.23S26.33,98.74,26.38,99Zm-.18,2.33c.5-.18-.43,1.64-.16.66C26.2,101.9,26,101.4,26.2,101.31Zm.21-7c-.11.52-.7.19-.26-.13S26.58,93.85,26.41,94.27Zm-.23,1.28c-.12,0-.1-.14.06-.36C26.77,94.38,26.5,95.55,26.18,95.55Zm.64-4.36c.07.2-.23.8-.38.73S26.72,90.87,26.82,91.19Zm8.33,27.67c.08.16.22-.14.35,0C35.43,119.46,34.5,118.64,35.15,118.86Zm4-65.29c.67-.29-.06-1.08-.22-.34C39,53.61,39,53.64,39.17,53.57Zm12,36.22c.39-.21.25.45.32.56C51.33,90.9,50.7,89.88,51.21,89.79Zm.16,1.1c0,.15-.12.23-.18.06S51.41,90.69,51.37,90.89Zm0,.44c.12.1.16.21.11.31C51.41,91.92,51,91,51.36,91.33Zm.25-.79c.23-.05,0,.46-.09.16C51.49,90.64,51.54,90.57,51.61,90.54Zm.14.79c.27-.18.09.33-.09.16C51.65,91.47,51.69,91.39,51.75,91.33Zm.46,2.91c.09,0,.17.05.17.07C52.35,94.55,51.89,94.27,52.21,94.24Zm.36,5.28a.25.25,0,0,1,0,.24C52.27,100.15,52.5,99.3,52.57,99.52Zm1.75.91c-.19-.09-.15.38-.26.1S54.55,100.35,54.32,100.43Zm0-1c.12.09.13.57,0,.17C54.24,99.43,54.25,99.36,54.31,99.42Zm.2,9.08c.18-.06.26-.06.18,0S54.08,108.67,54.51,108.5Zm.39.68c.27-.23.1.45-.06.23A.28.28,0,0,1,54.9,109.18Zm.14-7.81c.16-.06.11.35.06.37S54.89,101.4,55,101.37Zm.64,11.7c.14,0,.17,0,.09.05S55.33,113.19,55.68,113.07Zm.18,4.8c-.52-1.24,1.14-.71.34-1.29-.33-.26-.73.34-.59-.27.57-.11,0-1,.53-.92.7.19.12-.53-.38-.55.36-.15.49-.38.48-.53.43.49.51,1.45.14,1.76.24,0,1.17,1,1.46.56,0-.38.3.53-.11.31-1,.42.57,1.32.22,1.6-.08-.2-.47-.53-.31,0-.21,1.32.74.28.39,1-.21.4.14,2.16-.81,1.55-.27-.3-.57-4.37-1.14-2.73C56,118.48,56,118.42,55.86,117.87Zm-.08,1.64s0-.1.09-.16C56.15,119.16,56,119.67,55.78,119.51Zm.34-.84c.07,0,0,.15-.06.23C55.58,119.32,55.86,118.5,56.12,118.67ZM56,104.76c-.19,0-.22-.2,0-.26S56.09,104.72,56,104.76Zm.3,15.14c-.26,0,.07-.46.09-.16C56.34,119.82,56.3,119.89,56.27,119.9Zm.32-12c0,.15-.11.23-.18.06S56.64,107.66,56.59,107.87Zm0,2.39c-.05,0,0-.1.1-.17C57.27,109.62,56.77,110.29,56.6,110.26Zm.5,7.11c.17-.2.06-.33-.16-.2C56.44,117.33,56.87,117.54,57.1,117.37Zm-.2-.38a.17.17,0,0,0,0-.31C56.67,116.64,56.84,117,56.9,117Zm.41-.57c.21-.13.15-.78.19-1.22C57.89,115.12,57.93,116.45,57.31,116.42Zm.25,3.89c.08-.15.09-.29,0-.31C57.29,119.79,57.26,120.91,57.56,120.31ZM58,122.1c.88.7-.23,1-.16,1.59C58.08,124.41,57.14,124.32,58,122.1Zm0,16.72c.07,1.2,1-1.6,0-.72C57.31,138.4,58.06,138.4,58,138.82Zm0-17c.09.18-.14.33-.22.16S57.9,121.54,58,121.78Zm.41-3.66c-.11.07-.4-.2-.36-.26S58.58,118.05,58.41,118.12Zm-.17-6.61c-.13.07-.28-.2-.06-.17S58.43,111.43,58.24,111.51Zm.14,15.79c.15-.12.16-.1.08.08C58.29,127.89,58.11,127.47,58.38,127.3Zm-.09-2.8c-.09-.64,0-1,.1-.58C58.69,124.82,58.55,126.37,58.29,124.5Zm.24-12.57c0,.21-.49,0-.17-.08A.13.13,0,0,1,58.53,111.93Zm-.11.62c0,.15-.24-.38-.06-.21S58.46,112.51,58.42,112.55Zm.33,29.07c.7,0,.46-1.27,0-1.07s-.32.42-.06.41C59.33,140.93,57.62,141.82,58.75,141.62Zm-.31-28.77c.08-.4.23.24.08.23S58.37,113.12,58.44,112.85Zm.11.75c0-.18,0-.29.16-.31C59.51,113.29,58.89,114.42,58.55,113.6Zm.33,13.58-.07-.68c.1.29.48,1.31.29,1.43S59,127.6,58.88,127.18ZM59,114.26c0-.46.3.52.39.5C59.55,115.29,58.85,114.64,59,114.26Zm0,8.51s0-.12.07-.24C59.35,122.13,59.16,122.85,59,122.77Zm.08,1.92a2.56,2.56,0,0,1,.19-1.8C60.21,121.06,58.85,126.37,59.05,124.69Zm.31,6.41c-.08-.16-.3,0-.22.16S59.41,131.22,59.36,131.1Zm-.16-14.44a.21.21,0,0,1,.07.22C59.23,117,59,116.48,59.2,116.66Zm.1,11.63a.24.24,0,0,1,.07.21C59.33,128.65,59.12,128.12,59.3,128.29Zm.22-2.24c-.17,0-.36-.68-.14-.72S59.68,126,59.52,126.05Zm.18-9.51c-.28.23-.67-.83-.14-.42C59.7,116.32,59.93,116.35,59.7,116.54Zm-.26,12.81c.27-.22.1.46-.06.23A.26.26,0,0,1,59.44,129.35Zm.44,13c-.24-1-.27.48-.43.88C59.69,144.31,60.53,142.83,59.88,142.32Zm-.16-25.5c.14-.16.2.13.05.17S59.61,116.94,59.72,116.82Zm-.06,8c0-.2,0-.16.15.18C60.14,126,59.72,125.88,59.66,124.83Zm.45,5.5c-.59-.85-.35-4.29.07-3.72-.31.59.47,1.5.09,1.58-.56.09-.08,1.33.18.26C59.71,130.12,61.06,129.55,60.11,130.33Zm0,17.07c.08.23.1.22.22,0C60.63,146.92,59.94,146.84,60.15,147.4Zm.25-16.89c.05,0,0,1.07-.17.61C60.11,130.94,60.12,130.12,60.4,130.51Zm.24-3.44c0,.14-.11.23-.18.06S60.68,126.86,60.64,127.07Zm-.09-3.25,0,.32C60.53,125.11,60.35,124.17,60.55,123.82Zm.2-3.72c-.18.07-.17,0-.06-.17S60.9,120.07,60.75,120.1Zm.12,12.27c0,.08-.06.15-.1.16C60.51,132.51,60.84,132.07,60.87,132.37Zm.18,4.46c0,.3-.45.44-.13,0C61,136.66,61.05,136.65,61.05,136.83Zm0,.73c-.25,0,.08-.46.1-.16C61.1,137.49,61.06,137.55,61,137.56Zm0-8.61a.19.19,0,0,1,.07.21C61.09,129.31,60.88,128.77,61.06,129Zm0,18c0,.06.42-.08.35-.2S61.08,146.92,61.1,147Zm0-23.11c-.05-.13,0-.16,0-.09S61.23,124.17,61.13,123.86Zm.35,22.59c0-.06-.33-.15-.27,0S61.49,146.54,61.48,146.45Zm.72-12.66c-1.61.85-.69-1.32-.64.05.58,0-.32-3.8.17-2.36.23.57.3.23.27-.13C61.48,132.37,63.6,133.2,62.2,133.79Zm-.54-6.07c-.47,0-.19-.43-.15-.75C61.68,126.28,61.86,127.73,61.66,127.72Zm0,.38c-.27.29-.34.05-.11-.13S61.91,127.85,61.66,128.1Zm.13,6.12c.46-.2-.19.47,0,.67C62,135.87,61,134.28,61.79,134.22Zm0-11.52a.36.36,0,0,1-.1.16C61.4,122.84,61.72,122.39,61.75,122.7Zm0,6.4c-.32-.2.59-.12.45.22C62,130.14,62,129.16,61.71,129.1Zm.16-3.37c.14,0,.17,0,.09,0S61.53,125.85,61.87,125.73Zm0,2.71c-.1,0-.15-.22,0-.26S61.88,128.42,61.83,128.44Zm0-2.21c-.24,0,.08-.46.1-.16C62,126.15,61.92,126.23,61.87,126.23Zm0-2.24c-.05-.14,0-.18,0-.1S62,124.29,61.88,124Zm.3.73a.21.21,0,0,1-.08.15C61.84,124.86,62.16,124.41,62.18,124.72Zm.26,23.87c0,.38-.81,2.29.36,1.58C63.54,149.9,63.14,148.41,62.44,148.59Zm-.07-22.79c-.25.16-.19-.53,0-.49S62.53,125.75,62.37,125.8Zm-.11,1.67c-.06-.2.32.15.44-.07C63.27,127.31,62.45,128,62.26,127.47Zm1.84,16a10.09,10.09,0,0,1-.47-1.48c-.81-4.4-1-1.55-1-4.36.2-1.12-.6-.4-.25-1.26,0-.81.48-.51.74-1.09,0-.7.29.33,0,.39,0,.55.73.21,0,1-.46.52.6.71.38,1.34.25.76,0,1.24.38,2.33-.26.52.35,1.3,0,1.6C63.65,142.12,64.29,142.83,64.1,143.46Zm-1.32-16.65c-.1.49-.19,0-.13-.2C62.74,126.27,62.84,126.44,62.78,126.81Zm.13,1.24c-.06-.16,0-.24,0-.17S63.07,128.45,62.91,128.05Zm1.19,7.87c.28.51-.37.29-.3-.24S64,135.8,64.1,135.92ZM64,137.49c.09.16-.28.6-.11.08C63.94,137.44,64,137.41,64,137.49Zm.17-4.25s-.57-.8-.11-.55C64.35,132.74,64.28,133.19,64.18,133.24Zm0,4.11c-.14-.09-.19-.24-.16-.52C63.87,135.82,64.75,138.08,64.16,137.35Zm.29-3.76c.18.42-.38,0-.19-.13S64.41,133.49,64.45,133.59Zm0,4.87c-.34.09-.25.14-.19-.18C64.42,137.62,65,138.34,64.5,138.46Zm.38,1.22c.37,1.37-.85-1.16-.35-1C64.92,138.72,64.76,139.42,64.88,139.68Zm0,8.26c-.57.14.14-.67.19-.24A.31.31,0,0,1,64.88,147.94Zm.17.69c-.14,0-.27-.23-.17-.26S65.26,148.65,65.05,148.63Zm0-8c.37-.14.18.43,0,.2A.12.12,0,0,1,65.08,140.64Zm.33,5.42c0-1.06-.1-1.78.49-2C65.42,144.26,65.78,147.4,65.41,146.06Zm.74-2.58c0,.05-.43.38-.47.24S66.12,143.42,66.15,143.48Zm-.23-.67c-.26.38,0-.47,0-.25A.28.28,0,0,1,65.92,142.81Zm.76,2.26a.59.59,0,0,1,.11.34C66.8,145.64,66.5,144.84,66.68,145.07Zm.14-.77c0,.15-.25-.38-.07-.21A.25.25,0,0,1,66.82,144.3Zm.37,13.25c.82-1.09.39-1.72-.12-.35C66.82,157.26,67.12,157.54,67.19,157.55Zm.14-9.18c-.22.26-.28.17-.15-.21S67.55,148.18,67.33,148.37Zm-.09.5c.16,0,.24.1.06.17S67,148.85,67.24,148.87Zm0-1.79v-.51C67.46,147.1,67.34,148.37,67.24,147.08Zm0,2.26.4-.08c.61,0,0-.27.29-.27C68.53,150.4,68,151.73,67.28,149.34Zm.33-4a.19.19,0,0,1,.07.21C67.64,145.69,67.43,145.15,67.61,145.33Zm.16.45a.2.2,0,0,1,.07.22C67.81,146.14,67.6,145.61,67.77,145.78Zm.41,8.67c.51-.68-.1.71-.05.84C67.85,155.39,68,154.65,68.18,154.45Zm-.08-7.76a.23.23,0,0,1,.07.22C68.13,147.06,67.92,146.51,68.1,146.69Zm.15,4.83c.13,0,.19,0,.25.32C68.75,153.19,67.87,151.71,68.25,151.52Zm.17-2.23c.19-.06-.09.36-.16.29S68.3,149.32,68.42,149.29Zm.2,3.38c.06,0,.19.2.3.49C69.32,154.43,68.42,152.82,68.62,152.67Zm.5,1.2c.77.06.13.25.37.72C69.69,155.4,68.9,153.78,69.12,153.87Zm.19-.38a.4.4,0,0,1,0-.36C69.57,152.76,69.51,154,69.31,153.49Zm.26,2.31c0,.18-.07.19-.13,0S69.73,155.23,69.57,155.8Zm1.88,3.7c0,.28-.55-.14-.19-.14A.29.29,0,0,1,71.45,159.5Zm.18.46c0,.12.27,0,.3.11C71.36,160.71,71.21,159.31,71.63,160Zm.45.52a.18.18,0,0,1-.13.23C71.45,160.88,71.9,160,72.08,160.48Zm.22.23c.19-.06,0,.27.2.19C73,161.31,71.86,160.87,72.3,160.71Zm.5,3.36a.13.13,0,0,1,.12.16C72.85,164.63,72.55,164,72.8,164.07Zm0-2.71c.11-.74.42.2.31.36S72.83,161.67,72.78,161.36ZM74.3,165c-.85,0-1.13-1-1.41-1.33C73.34,163.41,74.59,164.6,74.3,165Zm.25-1.15c0-.08-1.35-1-.81-.8,1.72,1.06-.81-1-.38-1.09.78-.47,0,.78.77.42.56-.18-.5.38.27.31C74.83,162.56,75.23,164.16,74.55,163.86Zm1.26,1.95c-.25.23-.93,0-.28-.18C75.84,165.52,76,165.61,75.81,165.81Zm.43.84c0-.17,0-.18.12-.07C76.84,166.92,76.34,167,76.24,166.65Z"/><path class="cls-1" d="M148.08,15.14c-.63,1-.59,2.29-1.78,3-.38.23-.54,1-.65,1.51-.59,2.86-2.1,5.35-3.08,8.06-.76,2.09-1.47,4.19-2.41,6.21a2.36,2.36,0,0,0-.29,1.39c.28,1.16-.31,1.94-.83,2.86a15.43,15.43,0,0,0-1.32,3.32c-.41,1.39-.6,2.82-1,4.21a35.09,35.09,0,0,1-1.27,3.61c-.06.15-.51.14-.79.21.91-.79.36-1.55,0-2.31-.13.07-.33.13-.36.24a32.1,32.1,0,0,0-.84,3.45,75.54,75.54,0,0,0-1,10.51,23.28,23.28,0,0,0,1.28,7.77,2.28,2.28,0,0,0,.36.62,1.28,1.28,0,0,0,.38.26c.36-1.26.36-1.26-.17-3.55,0-.07,0-.19.08-.22l1.67-.92c-.09.87-.21,1.58-.24,2.29a4.45,4.45,0,0,0,.12,2.11c.77,1.34.54,2.72.56,4.2l-2.26-.47c.27.85.47,1.5.73,2.34-.44-.13-.72-.12-.82-.25-.31-.44-.56-.92-.86-1.43-.87,1.07-2.35,1.49-2.17,3.2l-1.85-.28-1.09,1.19a.44.44,0,0,1-.29,0,3,3,0,0,0-2-.4,7,7,0,0,1-5.2-1l-.06,0s0,0,0,0l0,0h0c.25-1-.46-1.54-1-2.11s-1.07-.9-1.23-1.62h0A4.61,4.61,0,0,1,117,69.37a2.19,2.19,0,0,1,1.27,1.15c.37-.68.71-1.27,1-1.86,0,.26,0,.51,0,.76h0c0-.26,0-.51,0-.76a17,17,0,0,1-1.06-1.85,16.94,16.94,0,0,1-.66-1.93c-.58,0-.62.3-.58.65a13.92,13.92,0,0,1,.21,2.33,7.57,7.57,0,0,1-.73-2.9,1.34,1.34,0,0,1,.28-1.09c.76-.51.45-1.32.68-1.94l1.38-.27c.08.11.23.24.24.36,0,1.42,0,2.85.06,4.25l1.43,1.26c.18-.75.33-1.39.49-2.08a2.23,2.23,0,0,1,1,2c0,.6-.28,1.31.66,1.77,0-.48.06-.89.1-1.3s0-1,.11-1.42a4.64,4.64,0,0,1,.76-2.71c-.42.1-.56-.17-.64-.5-.36-1.63-.74-3.26-1.06-4.9a2.76,2.76,0,0,0-.83-1.9,1.28,1.28,0,0,1-.3-1.74c.87-1.25.78-2.74,1.2-4.08l-1.87-1.63c-.47,1.8-1.37,3.38-1.08,5.3a3.24,3.24,0,0,1-1.4,3.51c-.52.81.34,2-.8,2.58a3.78,3.78,0,0,1-.79-3,8,8,0,0,0,.32-1.39c0-.43-.37-.85-.39-1.29,0-1.19.05-2.39.07-3.58,0-.4,0-.79,0-1.27l-1.82-1.11c0-.25,0-.48,0-.72-.14-1.31-.78-1.7-1.89-1.11a4.27,4.27,0,0,0-.93.73c-2.1,2-4.25,3.87-6.26,5.92-1.62,1.63-3.53,3-4.62,5.11-.88,1.65-2.3,2.76-3.51,4.09-.31.34-.62.71-1,1.13.38.25.68.45,1,.64-1.57.61-2.37,2-3.13,3.34l1.67-.76c.22.6-.14.69-.52.73s-.75,0-1.14,0a4.49,4.49,0,0,0-1,.7c-.62.8-1.16,1.66-1.92,2.75.56,0,.92.07,1.07-.07.45-.42.81-1,1.24-1.41.14-.14.4-.14.61-.2.06.22.22.48.15.64A2.82,2.82,0,0,1,92.51,72a5.79,5.79,0,0,0-2.18,1.77c-.29.31-.27.91-.35,1.42l1.48-1.39.48,1.38,0,0a.48.48,0,0,0-.62.53,6.71,6.71,0,0,1-1,4C89.84,80.85,89.47,82,89,83.1A2.44,2.44,0,0,0,88.81,85a.59.59,0,0,1,0,.47c-1,1.35-.47,2.88-.51,4.34a10.8,10.8,0,0,1-.23,1.45c1.13-.58,1.18-.58,1.21-1.18a16.15,16.15,0,0,1,1.54-6.22,1.92,1.92,0,0,1,1.12-1.16.81.81,0,0,1,.67.06c.14.13.27.5.18.63a12,12,0,0,1-1.07,1.5c-.19.24-.59.4-.65.65a48.31,48.31,0,0,0-1,5.14c-.07.72.52,1.48.58,2.24s-.36,1.38-.35,2.08a2.25,2.25,0,0,0,2,2.12,8.43,8.43,0,0,0,1.67.09c1.68,0,3.36,0,5.08,0a1.83,1.83,0,0,0,1.92,1.1c1,0,1.9.25,2.85.28a19.73,19.73,0,0,0,3.35-.14,10,10,0,0,1,4.66.32,16.32,16.32,0,0,0,5.67.6,8,8,0,0,1,3.49.49c1.77.74,3.47,1.63,5.19,2.49a2,2,0,0,1,.87.73,1.63,1.63,0,0,0,1.75,1,2.74,2.74,0,0,1,1.39.15c1.36.9,3,1.47,3.7,3.21a1.09,1.09,0,0,0,.45.5,7.17,7.17,0,0,1,3.4,3.63,1.54,1.54,0,0,0,.38.59,7.27,7.27,0,0,1,2,3.22,6.11,6.11,0,0,1,.58,3.73c-.18.93,0,1.92-.1,2.87-.07.6-.25,1.49-.66,1.71-1.06.55-1.05,1.56-1.33,2.4-.47,1.43-.71,2.93-1.07,4.4a10.91,10.91,0,0,1-.61,2c-.57,1.23-1.23,2.42-1.88,3.62A6.17,6.17,0,0,0,134,139.2a1.64,1.64,0,0,1-.35,1.12,25.54,25.54,0,0,0-1.83,2.69,6.89,6.89,0,0,0-1.62,3.12,3.6,3.6,0,0,1-.7,1.51c-2.72,3.49-5.11,7.29-9,9.65,0-.44.06-.86.1-1.29l0,.07-.06,0,.1,0c.67-1,1.32-2,2-3.09l-1,.19s0,0,0,0a12.89,12.89,0,0,1-3.47,2.42,14.38,14.38,0,0,0-2,1.35,3.56,3.56,0,0,0-1.28,1.93,5.24,5.24,0,0,1-2.24,3c-.78.54-1.45,1.27-2.21,1.84a20.24,20.24,0,0,1-4,2.61,45.53,45.53,0,0,0-4.57,2.65c-1.88,1.06-3.78,2.08-5.68,3.1a6,6,0,0,1-1.22.25L99.41,169a7.3,7.3,0,0,0-3.75,1.86,7,7,0,0,1-3.86,1.77,17,17,0,0,0-2.73.73c-.28-.33-.14-.55.17-.74l1.89-1.12c-.61-.26-1-.59-1.24-.51-2,.58-4.06.82-5.91,1.83-.12.07-.17.26-.29.43l.63.92c-.13.09-.27.26-.37.24a12.12,12.12,0,0,0-3.45-.85,5.75,5.75,0,0,1-2-.73,3.29,3.29,0,0,0,.83-.43,1.39,1.39,0,0,0,.44-.78c.06-.28-.55-.54-1-.33-2.1,1-4.08.07-6.07-.37-1-.21-1.28-1.3-.81-2.33a4.22,4.22,0,0,1,.5-.69,5.8,5.8,0,0,0-1.24-.29c-.87,0-1.74.09-2.51.13-.49-.62-.86-1.13-1.25-1.62s-.7-.87-1.07-1.32c.31-.77.6-1.49.9-2.21.06-.14.14-.34.25-.37,1.48-.35,1.74-1.77,2.4-2.81a9.76,9.76,0,0,1,3.33-3.28c.48.52.12.95,0,1.39a2.19,2.19,0,0,0,1.33,2.73,7.4,7.4,0,0,0,1.59.52,7.69,7.69,0,0,0,1.44,0c-.43.35-.69.55-.94.77a.64.64,0,0,0,.89.5c1.16-.6,2.77-.43,3.44-1.91l2.78-1.49a8,8,0,0,1,.6-.92,7.91,7.91,0,0,1,2.85-2.49,28.5,28.5,0,0,0,3.61-2.34c.66-.43,1.3-.93,2-1.34a19.18,19.18,0,0,0,4.67-3.73c1.35-1.49,2.64-3,3.95-4.51.21-.24.44-.46.65-.7,3-3.34,6-6.66,9-10a2.45,2.45,0,0,0,.58-.76c.91-3.19,3.11-5.73,4.4-8.72a54.55,54.55,0,0,0,2-5.16,6.16,6.16,0,0,0-.33-4.9c-1.18-.78-2.54.3-3.92-.46l2-1c-.07-.67-.47-.57-.73-.54-2.45.31-5-.06-7.36.84a4.3,4.3,0,0,1-1.44,0,39.94,39.94,0,0,1-7.65-.25l-.47-.08a31.13,31.13,0,0,1-9-2.25L87,108.48c-.15-.07-.34-.08-.44-.18-.52-.55-.74-1.48-1.71-1.47-.76,0-1.37-.48-2-.58a9.08,9.08,0,0,1-4.15-2.2,3.35,3.35,0,0,1-.25-.28c.14-.43.3-.94.5-1.59-.7-.86-1.48-1.76-2.19-2.71s-1.24-1.85-2.11-3.15c0,2,1.29,3,1.67,4.51-1.33-.51-1.7-.74-2.14-1.72-.73-1.6-1.37-3.23-2-4.87a6.66,6.66,0,0,1-.39-3.76,7.5,7.5,0,0,0-.28-2.59,3.61,3.61,0,0,1,0-2.11,6.18,6.18,0,0,0,.33-1.87,3.93,3.93,0,0,1,.76-2.46c.16-.22.11-.61.2-1.12-.38.07-.68.22-.86.13s-.57-.44-.54-.63c.2-1.16.67-2.15,2-2.1a13.21,13.21,0,0,0,.49-4.26l-.06.07v-.06h0a.64.64,0,0,0-.18-.93l0,0V72.5l.06,0c.12-.86.19-1.74.36-2.59s.27-1.66,1.49-1.37c.19,0,.5-.35.7-.58s.5-.71.19-1.08c-.17-.2-.52-.23-.8-.33a4.77,4.77,0,0,1,.78-2.66c1.22-2.07,2.21-4.26,3.34-6.37.41-.78.95-1.48,1.41-2.22s.88-1.49,1.39-2.34l-1.41-.15a11.14,11.14,0,0,1,1.56-2.69c2.52-3.3,4.66-6.88,7.38-10,1.09-1.27,1.83-2.9,3.07-4,3-2.51,5-5.8,7.93-8.34a33.89,33.89,0,0,1,3.87-3.2c.47-.29.85-.74,1.32-1s.61-1.11,1.47-1.07c.49,0,1-.41,1.63-.7.46.44,1,.88,1.48,1.39a9.24,9.24,0,0,0,3.7,2.48,12.65,12.65,0,0,1,2.09,1.17c.53.32,1,.71,1.69,1.18a6.81,6.81,0,0,0,.6-3.56,5.22,5.22,0,0,1,0-1.89c.4-2.36.85-4.72,1.32-7.07.29-1.4.6-2.82,1-4.19A42.94,42.94,0,0,0,123,4.83a3.19,3.19,0,0,1,.23-.92,14.94,14.94,0,0,1,.86-1.4c1,.14,1,.14,2.23,1.3a24.44,24.44,0,0,1,1-2.39.89.89,0,0,1,1.42-.13c.17.17.26.4.41.58s.53.61.78.9a12.12,12.12,0,0,0,1.62.43A1.92,1.92,0,0,0,132.63,3a1.2,1.2,0,0,1,1.34,0c.79.56,1.47,1.28,2.53.53.13-.08.47.07.67.19q2.39,1.4,4.74,2.85a2.31,2.31,0,0,1,.84.8,1.73,1.73,0,0,0,1,.91,4.92,4.92,0,0,1,3.49,3.3c.07.29.41.49.59.75A2.33,2.33,0,0,1,148.08,15.14ZM71.36,164.34a3.4,3.4,0,0,0-2.94.77,8.15,8.15,0,0,0,1.88.23C70.59,165.3,70.83,164.87,71.36,164.34Zm-2.3,2.55s-.08-.1-.12-.14l-.2.24.19,0C69,167,69.05,166.93,69.06,166.89ZM72,75.46a.46.46,0,0,1-.08-.19s.09-.06.14-.09a1,1,0,0,1,.08.19S72.05,75.43,72,75.46Zm1.1-1.69c.1,0,.2-.07.3-.09s-.07.22-.11.33Zm.57-1.21c.06.3.11.6.17.91a2.15,2.15,0,0,0-.36.11C73.32,73.2,73.26,72.83,73.67,72.56Zm-.24,1h0a.25.25,0,0,0,0,.07l-.1,0A.32.32,0,0,0,73.43,73.59Zm1.69,18.55c.15-1.64.15-1.64-.45-2.32C74.82,90.57,74.93,91.14,75.12,92.14Zm.1.77c.19,1.17.17,1.94,1.2,2.2C76.59,94.17,76.1,93.7,75.22,92.91Zm2-13-1.14-1c-.1.16-.25.29-.25.43a30.42,30.42,0,0,0-.22,4.94A18.71,18.71,0,0,0,75.69,87c.1.41.11,1,.82.84.41-1.21,1-2.47.39-3.68a3.15,3.15,0,0,1,0-2.7A11.7,11.7,0,0,0,77.18,79.89ZM87.75,60c.08-.1-.1-.41-.17-.67a3.24,3.24,0,0,0-1.66,1.68c-.89,1.52-1.84,3-2.77,4.48-.16.25-.28.62-.77.25.29-.79.53-1.64.9-2.42a21.28,21.28,0,0,1,1.22-2,3.18,3.18,0,0,0,.33-.63.41.41,0,0,0-.56-.47,3.4,3.4,0,0,0-1.39,1.89,17.72,17.72,0,0,1-2.41,4.39,1.09,1.09,0,0,0-.24.85c.22.73-.1,1.14-.54,1.69a13.8,13.8,0,0,0-1.39,2.5,4,4,0,0,0,0,3.55c.31-1.11.48-1.78.69-2.44a3.54,3.54,0,0,1,1.42-2.24c-.4,1.28-.67,2.14-.95,3l.46.3a5.75,5.75,0,0,0,.79-1c.31-.63.33-1.49.79-2,1.39-1.42,1.85-3.34,3-4.91C85.77,64,86.21,61.71,87.75,60ZM79,90.59l-.16.15a.32.32,0,0,1,.14,0C79,90.71,79,90.65,79,90.59Zm1.45,9.35c-.1-.07-.2-.15-.3-.21a2.62,2.62,0,0,0-.09.38s.16.14.17.13Zm3.45-30.75c-1.31,1.13-2,2-2.1,3.28a5,5,0,0,1-.43,1.36,15,15,0,0,0-1,6c.56-.3.47-.92.63-1.4.28-.83.46-1.69.74-2.52.21-.68.55-1.32.76-2s.33-1.56.55-2.32S83.53,70.28,83.91,69.19ZM81.12,170.14a1.29,1.29,0,0,0-.25-.27s-.13,0-.2.07l.25.27Zm.07,2.8a1,1,0,0,0-.2-.2s-.1.09-.15.13.09.12.14.13A1,1,0,0,0,81.19,172.94ZM82.45,67.19a2,2,0,0,1-1,1.94A1.71,1.71,0,0,1,82.45,67.19ZM82,95.48a.68.68,0,0,0,.05-.36c0-.08-.21-.09-.33-.14s-.05.18,0,.21A2.72,2.72,0,0,0,82,95.48Zm1.51,1.88c-.28-1.5-.32-1.56-1.46-1.81A2.08,2.08,0,0,0,83.47,97.36Zm-.19-9.2a3,3,0,0,0-.47.27c-.06.06,0,.26.06.4.12-.1.28-.17.36-.3A.81.81,0,0,0,83.28,88.16Zm.19-1.75A2.5,2.5,0,0,0,84,84c0-.1-.24-.14-.45-.24-.16.92-.31,1.82-.47,2.73C83.19,86.46,83.4,86.5,83.47,86.41ZM85,166a4.66,4.66,0,0,0-.75.23c-.09,0-.09.25-.14.38.2,0,.49.15.56.07A2.53,2.53,0,0,0,85,166Zm-.7-97.87c0-.13.07-.24.1-.36l-.17-.11a1.58,1.58,0,0,0-.09.36S84.27,68.08,84.33,68.13ZM85.48,90c-.73-.23-.88.15-.79.56.15.73.82,1.31.7,2.13.13-.07.26-.14.26-.21C85.62,91.61,85.55,90.77,85.48,90ZM90,165.49a5,5,0,0,0,1.28-.54c.59-.33,1.14-.71,1.71-1.08l-.6-1c.19-.19.41-.39.62-.61,1.34-1.41,2.07-3.31,3.61-4.58.07,0,0-.28,0-.42a8.25,8.25,0,0,0-4.33,2.69,30.19,30.19,0,0,1-3.35,2.7c-1.09.81-2.23,1.56-3.33,2.36a.85.85,0,0,0-.44,1l.52.38C87.2,166.05,88.59,165.8,90,165.49Zm-4.6-72.72c-.5.63-.16.91.45,1.14A1,1,0,0,0,85.38,92.77Zm.12-16.3s-.12,0-.12.08l.1.23A1.9,1.9,0,0,0,85.5,76.47Zm2.86-4.68a1.76,1.76,0,0,0-1.92.87,6.9,6.9,0,0,0-.74,1.93.62.62,0,0,0,.33.52c.27.06.7.07.85-.1A4.16,4.16,0,0,0,88.36,71.79Zm-.08,8.44c-.07,0-.16-.11-.19-.08a1.68,1.68,0,0,0-.29.25c.1.07.21.12.31.18C88.16,80.47,88.21,80.36,88.28,80.23Zm.86-23.32-.24-.21c-.07.13-.13.25-.18.37s.14.1.16.08S89.05,57,89.14,56.91ZM89.9,75.3c-.79.23-.86.91-1.05,1.86A1.88,1.88,0,0,0,89.9,75.3Zm.2,1.93a5.78,5.78,0,0,0-.48.74c0,.07.11.23.2.34s.15,0,.2-.08C90.33,78,90.56,77.7,90.1,77.23Zm6.31,88.22c-.12-.38-.2-.67-.29-1a3.58,3.58,0,0,1-.61.67c-1.52.86-3.05,1.69-4.58,2.53l-1.23.75C92.67,168.2,94.5,166.81,96.41,165.45Zm-4.64-84-.09-.17.24-.1a.66.66,0,0,1,0,.2S91.81,81.46,91.77,81.49ZM92,75.16l0,0,.4-.19.2-.12a1,1,0,0,1-.18.18Zm1.87-24.42c0-.06-.16-.23-.31-.45-.41.48-.81.94-1.56,1.83A2.44,2.44,0,0,0,93.85,50.74ZM92.39,77.33h0c.21.33.46.65.91.51a13,13,0,0,0,1.2-.55c-.53.89-.92,1.54-1.25,2.11-.69,0-.79-.27-.77-.73A10.17,10.17,0,0,0,92.39,77.33Zm.68-.21c-.17.14-.45.12-.68.18,1.49-2.26,3-4.5,4.43-6.78.34-.55,1-1.13.37-2-.11-.14.12-.6.28-.86a7.3,7.3,0,0,1,1.38-1.94c1-.81.94-2.18,1.79-3.06a7.7,7.7,0,0,0,2.09-2.88,3.91,3.91,0,0,1,1.86-2.1c.11-.07.29,0,.53-.06,0,.23,0,.48-.13.62a27.41,27.41,0,0,0-4.46,7.58,3.62,3.62,0,0,1-.62,1A8.06,8.06,0,0,0,98.05,71a4.29,4.29,0,0,1-1.12,2.34A27.71,27.71,0,0,1,93.07,77.12Zm16.74,80A5.12,5.12,0,0,0,112,155c-.58,0-1-.07-1.27.11-.86.67-1.63,1.43-2.44,2.16,0-.67-.07-1.34-.1-1.92l3-3.16c-1.16.32-2.33.6-3.46,1a2.25,2.25,0,0,0-1.27,1c-.34.72-1,1-1.54,1.42-.88.65-1.75,1.33-2.67,2a4.43,4.43,0,0,0-1.65,1.65,3.11,3.11,0,0,1-1.24,1.07c-2.07,1.24-4.16,2.45-6.25,3.67.2.54.47,1,1.18.68a6.2,6.2,0,0,0,1.86-1,5.2,5.2,0,0,1,2.22-1.31c1.19-.42,2.4-.83,3.6-1.2a2.83,2.83,0,0,1,.91.08c-.57.67-1.41.88-1.34,1.86,1.25-.73,2.47-1.41,3.68-2.14a2.68,2.68,0,0,0,.66-.68A12,12,0,0,1,109.81,157.11ZM96.64,167.76a5.53,5.53,0,0,0-1.09.23c-.11,0-.13.25-.18.39.12,0,.29.13.37.09A6.57,6.57,0,0,0,96.64,167.76Zm3.14-4.8c-.77-.53-1.26,0-1.77.24-.68.35-1,1.24-1.89,1.28A3.5,3.5,0,0,0,99.78,163ZM97.1,64.57l-.06,0,.13,0v.06Zm.09,1c0-.48,0-.74,0-1l1.29-.68.17.24C98.21,64.49,97.8,64.91,97.19,65.52Zm1.57,93.21c.38-.06.75-.11.75-.62C99.25,158.32,99,158.52,98.76,158.73Zm.88-.72.44-.09s-.11-.09-.14-.08Zm1.66,8.73-.41.27.31.15C101.23,167,101.26,166.88,101.3,166.74Zm.47-.49c-.07,0-.18,0-.21,0s-.1.23-.15.34a.72.72,0,0,0,.33,0C101.79,166.55,101.76,166.36,101.77,166.25Zm.53-13.74c.06,0,.13.15.17.13a1.68,1.68,0,0,0,.37-.21c0-.05-.13-.15-.16-.14A1.79,1.79,0,0,0,102.3,152.51Zm1.34,12.68c-.17-.11-.31-.27-.38-.24a.56.56,0,0,0-.27.33c0,.1.1.23.16.35C103.31,165.48,103.47,165.33,103.64,165.19Zm2.94-7.11.23-.25a1,1,0,0,1,0,.23S106.65,158.07,106.58,158.08Zm.25-.39.07,0-.09.1A.78.78,0,0,0,106.83,157.69Zm0,0,.13,0a.71.71,0,0,0-.07.09S106.84,157.68,106.84,157.68Zm1.37-.44-1.23.4A1.35,1.35,0,0,1,108.21,157.24Zm-.78-104c-.06-.15-.12-.27-.1-.29.35-.38.71-.74,1.07-1.11C108.72,52.91,108.12,53.09,107.43,53.19Zm.78,104.05,0,0v0h-.05Zm2,5.28a2.25,2.25,0,0,0-.62.07c-.09,0-.13.24-.2.36a2.48,2.48,0,0,0,.61,0C110.12,162.93,110.15,162.72,110.24,162.52Zm6.6-16.62a2.47,2.47,0,0,0-.41.14,6,6,0,0,1-3.21,1.27,5.54,5.54,0,0,0-2.33,1.08,4,4,0,0,0-.81,1l.18.21c.82-.43,1.66-.86,2.48-1.3-.59.78-1.2,1.56-1.81,2.34.66.38.36.9.4,1.34.22-.18.54-.35.58-.57a3.22,3.22,0,0,1,1.93-2.26C115.64,148.11,115.65,148.12,116.84,145.9Zm-5.18,15.23c-.13,0-.35-.15-.38-.11a2.58,2.58,0,0,0-.35.55l.48.13C111.49,161.52,111.56,161.32,111.66,161.13Zm.34-4.41c-.11.06-.21.1-.3.16a1,1,0,0,0-.13.16c.12,0,.31.06.35,0A.61.61,0,0,0,112,156.72Zm4.51-3.8a10,10,0,0,0-1.23.32,4.78,4.78,0,0,0-1.9,2.08c-.12.22.05.61.08.92-.44.13-1-.08-1.33.38l1.33-.37c.75-.69,1.51-1.37,2.22-2.09A7.46,7.46,0,0,0,116.51,152.92Zm-3.59-4.73-.18.09a1.34,1.34,0,0,0,.11-.14Zm.13-.12-.14.13-.06,0Zm.45-.19-.45.19a2.54,2.54,0,0,1,.29-.28S113.45,147.85,113.5,147.88Zm4.37-92a1.62,1.62,0,0,1-.13-.19.58.58,0,0,0,0,.21.71.71,0,0,0,.12.18A1.52,1.52,0,0,0,117.87,55.9ZM119.38,151a1.32,1.32,0,0,0-1.35,1A1,1,0,0,0,119.38,151Zm-.32-78.68a2.38,2.38,0,0,0-.64-.31c0,.41,0,.74,0,1.07l.34-.08C119.22,72.86,119.35,72.6,119.06,72.3Zm.2,84.15h0l0,0-.31,0,.35-.06S119.26,156.46,119.26,156.45Zm1.17-.43-1.16.43C119.54,155.76,119.6,155.73,120.43,156Zm-.72-5.35-.07-.13-.1.27Zm.67,6.63.08,0a.09.09,0,0,0,0,.05h-.09c-.15,0-.24,0,0,0Zm1.08-83.22a4.11,4.11,0,0,0-.51-.34s-.1.1-.16.16l.55.44A1,1,0,0,0,121.46,74.08Zm5.4,73.43a3.47,3.47,0,0,0-.82.3,37.61,37.61,0,0,0-5,4.93l.62.27a4.47,4.47,0,0,1,1.93-1.59,12.71,12.71,0,0,0,3.4-3.57S126.93,147.72,126.86,147.51ZM122.17,149a.67.67,0,0,0,1-.13c.08-.11.13-.39.08-.42s-.46-.22-.54-.15a5.3,5.3,0,0,0-.52.7Zm2.72-82.21c-.39-1-.77-2-1.15-3,.07.71.18,1.42.21,2.14a2.55,2.55,0,0,1-.28.83C124.08,66.67,124.46,67.43,124.89,66.81Zm-.76.77-.46-.8c.1.29.19.58.29.88Zm0-12.16c-.3,1.2-.63,2.1,0,3.21A3.73,3.73,0,0,0,124.15,55.42Zm.34,84.87c.05,0,.09.11.13.11a1,1,0,0,0,.21-.09l-.2-.19A1.15,1.15,0,0,0,124.49,140.29Zm.08-86.65s.07.1.11.14.08-.11.07-.16-.08-.1-.11-.15S124.56,53.59,124.57,53.64Zm8.26-11.06a9.46,9.46,0,0,0-.7,1.4A35.16,35.16,0,0,0,131,48.64a20.7,20.7,0,0,1-.92,4.61,9.81,9.81,0,0,0-.13,1.64c-.05.28-.31.5-.49.75h.07s0,.07,0,.11a.78.78,0,0,1-.2,1l0,.16c-.43,0-1,.17-1.07-.54,0-.28,0-.65-.68-.47-.14.38-.32.86-.49,1.34.1-1.5.19-3,.29-4.51a4.79,4.79,0,0,0,.1-1.18,4.78,4.78,0,0,1,.33-2.79c.18-.45-.06-.74-.64-.69a6.56,6.56,0,0,0-.23.62c-.75,2.55-.66,5.2-.86,7.81-.08,1.11-.18,2.21-.21,3.31,0,.79,0,1.57.07,2.37,0,.36-.24.78.39,1.11a26.14,26.14,0,0,0,.52-3.79,21.19,21.19,0,0,1,.28-2.35,3.84,3.84,0,0,1,.34,2.57,6.46,6.46,0,0,0,.3,3.21,2.61,2.61,0,0,0,.46-.71c.37-1.26.7-2.54,1-3.81a3.25,3.25,0,0,1,.41,2.43,12.67,12.67,0,0,0,.63,7.52,3.68,3.68,0,0,0,.61,1,.73.73,0,0,0,.62.18.67.67,0,0,0,.45-.46,10.11,10.11,0,0,0,0-2.13,28.68,28.68,0,0,1-.17-8.82,8.71,8.71,0,0,0,.21-3.29,2.82,2.82,0,0,1,0-1,21.68,21.68,0,0,1,.48-3.53c.52-1.62-.15-3.47.62-5.14.06-.12-.06-.3-.08-.46C132.92,44.09,132.88,43.49,132.83,42.58ZM127.71,63c-1.08.4-1.14,1.35-1.19,2.28,0,.43-.14,1,.48,1,.25-.78.47-1.52.74-2.24A1.13,1.13,0,0,0,127.71,63ZM128,47.45c-.16-.83-.25-1.25-.32-1.63C127.47,46.46,127.5,46.53,128,47.45Zm-.27-1.84c.36-.2.5-.45,0-.93C127.75,45.06,127.74,45.34,127.73,45.61Zm.54,2.93a.68.68,0,0,0,.41.47c.18,0,.52-.19.54-.33.07-.77.07-1.54.1-2.32A2.35,2.35,0,0,0,128.27,48.54Zm0,97.72.3.26a8.9,8.9,0,0,0,.61-.9.4.4,0,0,0-.18-.37.44.44,0,0,0-.38.14A6.08,6.08,0,0,0,128.27,146.26Zm0-103.72.11.18.06-.2Zm.06,91.75,1.07-.35c0,.35.09.65.17,1.24a12.1,12.1,0,0,0,1.38-.85c.14-.11.22-.58.16-.61-1-.59,0-1.38-.07-2.1C129.37,132.56,128.15,133.77,128.36,134.29Zm6.28-88.35c-.34.33-.21.69-.07,1.06C134.59,46.64,134.62,46.3,134.64,45.94Zm.29-.65s-.16-.17-.24-.25-.08.13-.08.19l.09.5A1.86,1.86,0,0,0,134.93,45.29Zm-.29,4.17h0c.05.14.09.28.14.42l-.15-.41Zm3.11,18.08c0,.06.11.11.11.17a.42.42,0,0,1-.1.2l-.13-.19Zm.85,52.74s.08.06.12.09l.13-.15-.22-.15A.82.82,0,0,0,138.6,120.28Z"/><path class="cls-1" d="M262.46,8.57c.33.49,0,.79-.25,1a7,7,0,0,1-2.85,1.59c-1.06.23-2.31.25-2.46,1.67-.91.59-1.81,1.19-2.73,1.76-.32.2-.68.36-1,.53,0,.35.08.62.12,1l-4.64,2,1.54.3c-.08.29-.06.68-.24.8a8.66,8.66,0,0,1-2.57,1.54c-1.54.38-3,.88-4.55,1.34a5.66,5.66,0,0,0-.73.34c-.14.82.64.58.93,1a18.14,18.14,0,0,1-2.71.61,72.14,72.14,0,0,0-7.73,1.47,10.54,10.54,0,0,0-3.69,1.22l2.27.38c-.47.37-.67.62-.91.69A19.79,19.79,0,0,0,226,29.72a9.84,9.84,0,0,1-4.71,1.44c-2.54.07-4.62,1.43-6.86,2,0,.39-.11.56-.06.67,1.47,3,1.18,6.14,1.16,9.27a18,18,0,0,1-1.13,5.73c-.94,2.7-1.78,5.42-2.71,8.12a8.18,8.18,0,0,1-2,3.57,1.5,1.5,0,0,0-.46.77,8.06,8.06,0,0,1-1.51,2.77,6,6,0,0,0-1.12,2.45,1.52,1.52,0,0,1-1,1.41.92.92,0,0,0-.49.48c-1.38,3.09-3.34,6-3.88,9.37,0,.37-.25.8-.11,1.1.54,1.16-.12,2.2-.31,3.28a1.56,1.56,0,0,1-1.22,1.47c-.53.14-.66.82-.14,1.29a.77.77,0,0,1,.07,1.2,2.56,2.56,0,0,0-.76,2.26,8.57,8.57,0,0,1-.7,3.69c-.57,1.4-1.3,2.73-1,4.3,0,.32-.23.7-.39,1-.5,1.1-1,2.2-1.53,3.29a3.54,3.54,0,0,0-.24,2.41c0,.15.24.28.4.41h.06v.07l0,0,0,0a4.55,4.55,0,0,1-.5,2.77,14.2,14.2,0,0,0-.93,2.5c-.25.91-.34,1.86-.53,3l1.72-.54a25.21,25.21,0,0,1-1.27,4.24,13.82,13.82,0,0,0-.48,2.17c0,.2.32.48.56.61s.41-.15.59-.27a.72.72,0,0,0,.25-.37,32,32,0,0,0,1.12-4.33,5.93,5.93,0,0,1,1.69-3.59,2.93,2.93,0,0,0,1.06-2.16c0-.31.07-.31,1-.51a6.57,6.57,0,0,1-.51,3.83c-1.15,2-2,4.22-3,6.33a9.42,9.42,0,0,1-1,1.36c.61,2.21,0,4.47-.39,6.74-.11.65-.29,1.31-.34,2a16.18,16.18,0,0,1-.75,4.62,5.2,5.2,0,0,0-.11,1.32,9.25,9.25,0,0,1-.14,1.29,6.72,6.72,0,0,0-.14,4.18c.06.18-.09.41-.16.63a3.05,3.05,0,0,0-.52-.61,2.27,2.27,0,0,0-.71-.23c-.42.65-.17,1.34-.16,2,.05,2.23-.51,4.46-.19,6.7.12.82.27,1.62.35,2.43s.07,1.48.11,2.41l-1.33-.37c-.44,1-.44,1-1.66,1.71.08.41.15.84.18,1-.73,2.19-2.48,2.8-4.51,3a7.26,7.26,0,0,1-.41,1.07,2.5,2.5,0,0,1-2.74,1.35,13.28,13.28,0,0,1-2.5-.72,11.26,11.26,0,0,1-1.39-.85c-.47-.28-1-.51-1.45-.76a9,9,0,0,0-.15-2.41,6,6,0,0,1,0-2.28l-1.07.6c-1.45-1.6-1.51-1.88-.72-3.73l.94-.16a2.47,2.47,0,0,0-1.5-1.79,3,3,0,0,0,.08-2.26,13.84,13.84,0,0,1-.37-3.05,6.57,6.57,0,0,1,.1-2.89,7.07,7.07,0,0,0,0-2c0-.33-.16-.75.37-.91.46.48.08,1,.09,1.49s.1,1,.16,1.72a12.38,12.38,0,0,0,.42-6.66c-.47.05-.36.39-.37.67a.82.82,0,0,1-.22.6c-.26-2.11-.54-4.23-.77-6.36a4,4,0,0,1,.43-2.61,4.49,4.49,0,0,0,.31-1.74c.13-1.33.22-2.68.34-4.2l.92,1c.69-1,.47-2,.69-2.92a2.51,2.51,0,0,0-.61-2.65c.45-.58.9-1.16,1.57-2-.68.08-1,.11-1.39.17.06-.23.05-.51.19-.61,1.08-.77,1.32-2,1.83-3a.76.76,0,0,0-.36-1.14c-.57-.24-.55-.71-.37-1.14a9.57,9.57,0,0,0,.57-4.2l-.08.1v0l0,0c1-1.8,1.14-2.66.51-3.67-.19.59-.37,1.13-.55,1.66a9.88,9.88,0,0,0-.07-1.33,2.21,2.21,0,0,1,.55-1.9c1.22-1.19,1.13-2.73,1.55-4.14,0-.12-.07-.28-.13-.46-1.11.13-.42,2-2.05,1.74a16.78,16.78,0,0,1,.2-1.72q2.73-12.78,5.49-25.57c.27-1.26.63-2.48.9-3.73a10.5,10.5,0,0,0,.4-2.65,20.67,20.67,0,0,1,.37-4.23c.4-2.59,1-5.15,1.3-7.76s1.15-5.12,1.71-7.69a7.73,7.73,0,0,0,.41-2.67,1.76,1.76,0,0,0-1.76,1,4.64,4.64,0,0,1-3.27,2c-2.39.61-4.79,1.17-7.16,1.82-1.37.37-2.68.92-4,1.33a50.44,50.44,0,0,1-5.27,1.39,30.31,30.31,0,0,0-6.39,1.8,1.5,1.5,0,0,1-2.07-.47,8.33,8.33,0,0,1-1.39-1.53,6.94,6.94,0,0,0-2.79-2.55,2.77,2.77,0,0,1-1.68-2c-.06-.4-.45-.76-.71-1.13s-.5-.44-.55-.69a5.37,5.37,0,0,0-1.19-2.15c-.32-.41-.32-1-.54-1.48a2.9,2.9,0,0,0-.71-1.12A3.75,3.75,0,0,1,146.87,32c0-1,0-2.05-1.09-2.76a1.88,1.88,0,0,1-.57-.95c-.39-1.13-.72-2.27-1.13-3.55a12.05,12.05,0,0,0,1.18-.66c.25-.17.59-.43.6-.66.08-1.74,1.47-2.37,2.8-3.06a4.29,4.29,0,0,1,.44-.13c1.3.49,1.9.53,4.08.12,1.88-.35,3.73-.82,5.62-1.14,2.73-.46,5.48-.93,8.24-1.2a51.89,51.89,0,0,0,6.11-1,9.27,9.27,0,0,1,1.63-.34c3.9-.24,7.7-1.22,11.56-1.64,3.26-.36,6.39-1.32,9.66-1.52a33.38,33.38,0,0,0,3.52-.64c4.63-.76,9.26-1.58,13.91-2.24,3.46-.48,7-.73,10.43-1.11.94-.1,1.88-.26,2.71-.37.65.3.17.7.24,1.13a15.47,15.47,0,0,1,6.12-.43,16.45,16.45,0,0,0,2.62-.07c.12,0,.23-.18.42-.35-.33-.59-1-.22-1.47-.41.08-.09.14-.22.21-.23a28.18,28.18,0,0,1,7.62-.08,3.85,3.85,0,0,0,1.88,0c1.79-.64,3.62-.4,5.44-.44,2.7-.06,5.41-.05,8.11,0,1.58,0,3.16.22,4.7.34ZM174.21,130l-.11.18.09.2C174.19,130.21,174.2,130.08,174.21,130Zm.49-2.94a2.77,2.77,0,0,0-.09-.69,3.85,3.85,0,0,0-.51,2.47C174.4,127.91,174.57,127.47,174.7,127Zm.4-4.11c0-.1-.16-.21-.24-.32-.1.08-.28.15-.28.24a7.72,7.72,0,0,0,0,1l.33,0C175,123.5,175.08,123.2,175.1,122.9ZM177,101.39c0,.56.05,1.1.07,1.66l-.29.19-.35.25C176.33,102.73,176.34,102.69,177,101.39Zm.08-.13s0,.09-.07.13v-.15a2.09,2.09,0,0,0,.08-.23ZM183.67,121a3.42,3.42,0,0,1,.16-2.56,10.46,10.46,0,0,0,1-4.78,3.47,3.47,0,0,1,.18-1.1.89.89,0,0,1,.89-.56,5.31,5.31,0,0,1,.2,3.18c-.13.62-.18,1.25-.26,1.87a1.88,1.88,0,0,0,1.42-1.74c.23-1.39.49-2.79.8-4.17q.81-3.59,1.53-7.19c.34-1.74.46-3.51,1-5.25.36-1.23.68-2.6-.22-3.83a.63.63,0,0,1-.06-.63c.54-.76.18-1.8.95-2.47a3.7,3.7,0,0,0-.07.57c0,.06.11.13.16.18a1.16,1.16,0,0,1,0-.18c0-.19,0-.38,0-.57s-.25-.25-.23-.36a15.78,15.78,0,0,1,.83-4.13,1,1,0,0,1,.79-.65c0-.4,0-.8,0-1.23a2.26,2.26,0,0,0-1.89,1.38c-.65,1.45-1.36,2.88-2.07,4.3a6.17,6.17,0,0,0-.75,4.11h0c-.19.21-.47.39-.54.63-.25.83-.43,1.67-.62,2.52.95,0,.68-1.24,1.53-1.42.13.25.35.46.32.62a8.92,8.92,0,0,0-.13,2.36c0,.9.16,2-.73,2.73-.17,1.65-1.52,2.94-1.62,4.64a.8.8,0,0,1-1.36.6s-.13.06-.14.06c-.44,1.08-.87,2.12-1.33,3.23a1.91,1.91,0,0,0-1.76,1.5.74.74,0,0,1-1.12.46,1.88,1.88,0,0,1,.16-.64c1.53-2.2,1.66-4.81,2.2-7.27a14.91,14.91,0,0,1,.7-3.27.55.55,0,0,0,0-.43.9.9,0,0,0-.42-.46c-.17,0-.55,0-.6.17a7.45,7.45,0,0,0-.71,2.1,34.87,34.87,0,0,1-1.42,5.87c-.46,1.9-.84,3.8-1.23,5.71,0,.08.15.2.25.32l.87-.33a3.4,3.4,0,0,1-.18,2.79,12.16,12.16,0,0,0-1.06,3.9,2,2,0,0,1-.22.87,12.16,12.16,0,0,0-1,4.1,2.85,2.85,0,0,0,.76-.46,20.26,20.26,0,0,0,1.18-1.69c.22,1.19-.39,1.94-.61,2.78a8.24,8.24,0,0,0-.48,2.17,13.23,13.23,0,0,1-.39,2.88,16.54,16.54,0,0,0-.51,4,16.61,16.61,0,0,1,0,2.64,4,4,0,0,0,1,3.41c-.21-2,1.63-3.62.26-5.23a10.53,10.53,0,0,0,.68-3.14c-.28-2.75.59-5.35.87-8,0-.2.4-.38.61-.57v0c.05.19.11.38.16.57.14,0,.37,0,.42-.12a3.93,3.93,0,0,0,.57-2.36c0-.42,0-.82-.06-1.23.56.83.13,1.86.89,2.85A5.22,5.22,0,0,0,183.67,121Zm-5.74,7a1.2,1.2,0,0,0,.2,0c-.08-.45-.17-.91-.26-1.36Zm.19-32.22a1.21,1.21,0,0,1-.05.18s-.14,0-.14-.06a.64.64,0,0,1,0-.17C178,95.68,178.12,95.69,178.12,95.71Zm4.46,36.16a1.13,1.13,0,0,0-.44,1,2.51,2.51,0,0,1-.44,1.61,3.23,3.23,0,0,0-.23-2.41c-.24.2-.44.27-.45.38a35,35,0,0,0-.44,6.46c0,1.34,0,2.69.1,4a11.24,11.24,0,0,1,.16,2.66c-.13,1.08.16,1.67,1.11,2.78a7.5,7.5,0,0,0,.15-2c-.66-2.83-.34-3.93.68-6.68a2,2,0,0,0,.08-.65c0-1.42.11-2.84.1-4.26A7,7,0,0,0,182.58,131.87Zm-1.35-6.62v0c-.09-.26-.17-.51-.25-.77l.15,0C181.16,124.74,181.19,125,181.23,125.25Zm.35-4.43c0,.29.09.6.16,1C181.16,121.43,181.41,121.12,181.58,120.82Zm0-.16a1.15,1.15,0,0,1,.52-1.34A.86.86,0,0,1,181.59,120.66Zm0,0,0,0a.14.14,0,0,1,0,.07h0a.16.16,0,0,0,0,.07A.69.69,0,0,1,181.56,120.69Zm0,14.65c0-.2.05-.39.07-.59.05.19.1.39.14.58Zm0-.72s0-.06.06-.09a.79.79,0,0,0,0,.13h0a.11.11,0,0,0,0,.08A.35.35,0,0,1,181.64,134.62Zm0-36.68c0,.3.3.81.54.86.93.19.64.88.76,1.41a2.39,2.39,0,0,0,1.81-2.72,7.31,7.31,0,0,1,.74-4.29,2.38,2.38,0,0,0-.08-2.39c-.28.1-.82.2-.82.31,0,.6-.43.93-.8,1.31-.15.16-.38.44-.32.56.58,1.16-.36,1.74-1,2.46A3.45,3.45,0,0,0,181.66,97.94Zm1,29.27-.36,3.21C183,128.93,183,128.93,182.62,127.21Zm-.32-17.29.42.23a2,2,0,0,0,.65-2.36C182.93,108.68,182.62,109.3,182.3,109.92ZM193,95.05a14.66,14.66,0,0,0-.16-1.75,4.93,4.93,0,0,0-1.28,3.27c-.16,1.61-.06,3.25-1,4.76a3.42,3.42,0,0,0-.13,1.76,6.69,6.69,0,0,1-.71,3.49,4,4,0,0,0-.46,2.6,8.7,8.7,0,0,1,0,1.35,0,0,0,0,0,0,0c.16.14.37.27.39.43.12,1,.32,2-.51,2.91s-1.36,2-.57,3a2.87,2.87,0,0,1,.2,3.12,12.59,12.59,0,0,1-.73,1.12c-.24.47-.41,1-.6,1.45s.28.87-.3,1.14c-.65-.36-.09-.8-.11-1.18a1.13,1.13,0,0,0-1.13-1.17A9.6,9.6,0,0,0,187,120a1.32,1.32,0,0,0-.66-2c-.25-.13-.36-.53-.52-.83-.14.16-.36.34-.35.5a8.55,8.55,0,0,1-.59,3.74,3.13,3.13,0,0,0-.16,1.33,19.62,19.62,0,0,1,.22,2.84,13.12,13.12,0,0,1-.82,2.75c-.25.76.32,1,.79,1.41a6.53,6.53,0,0,0-.81,3.88c0,2,.09,4,0,6a5.51,5.51,0,0,0,.85,3.33c0-2,.09-3.84.14-5.67v0c1.16-.57.73-1.61.84-2.51,0,1,1,.49,1.44.84a2.2,2.2,0,0,1-.08.62,10.65,10.65,0,0,0-.91,5c.06,1.42,0,2.84.11,4.27a11.19,11.19,0,0,0,1,4.13c.09.21.42.31,1,.75a13.6,13.6,0,0,1-.2-5.32c.93,1.07.71,2.55,2,3.41a16.67,16.67,0,0,0,.3-2.09c.08-2.92.1-5.83.17-8.75a8,8,0,0,1,.25-1.76c.2-.78.49-1.56.79-2.47a1.51,1.51,0,0,0,1.14-1.05c.89-2.07.7-4.27,1-6.41a1.85,1.85,0,0,0-.4-1.26,2.27,2.27,0,0,1-.31-2.14c.19-.88.38-1.75.52-2.63a5.06,5.06,0,0,0-.24-1.13,11,11,0,0,0-.7,1.3c-.29.93-.53,1.88-.78,2.82-.15.58-.28,1.16-.43,1.74s.63.74.74,1a9.87,9.87,0,0,0,0,2.84,5.22,5.22,0,0,1-.26,3.73,5.75,5.75,0,0,1-.66.23c-.77.21-.75-.81-1.33-.91l-.65,1.14c.05-1,0-1.63.11-2.21q1-6.8,1.95-13.58a50.78,50.78,0,0,0,.35-5.18c-.33.23-.5.33-.8.52a17.45,17.45,0,0,1,.61-4.74,32.5,32.5,0,0,0,1.29-9.08C192.85,97.28,193,96.17,193,95.05Zm-8.55,8.44s.05.09.08.14a1.09,1.09,0,0,0,.08-.15Zm.58,33.79s0,0,0,0,0-.3,0-.44a.87.87,0,0,0,0-.22c.06.08.17.16.17.23A1.56,1.56,0,0,1,185.05,137.28Zm.35-27.42-.12,0,.05-.16ZM185.48,89a4,4,0,0,0,.74-2.24C185.18,87.17,185.21,88,185.48,89Zm.17,16.2c-.05,0-.12,0-.15,0s0,.11,0,.18a1.14,1.14,0,0,1,.25-.06A.59.59,0,0,0,185.65,105.15Zm.23,6.11c0,.19,0,.4,0,.6-.1-.18-.18-.36-.27-.54Zm-.06-28c1.6-1,1.65-1.2.83-2.25C186.4,81.71,186.18,82.32,185.82,83.3Zm.1,28.57a.47.47,0,0,0,.05.1l-.05,0Zm0,9.81a2.06,2.06,0,0,0,0-.26c0,.06.06.11.06.16S186,121.66,185.92,121.68Zm0-.33h0v0h0Zm.39-36.21a1,1,0,0,0-.11,1.44A1.77,1.77,0,0,0,186.34,85.14Zm-.09,47.36h.13c0,.07-.06.14-.12.3C186.26,132.63,186.25,132.57,186.25,132.5Zm.62-7h.31a6.8,6.8,0,0,1,0,.78c0,.06-.19.12-.3.16s-.12-.11-.11-.16A7.08,7.08,0,0,1,186.87,125.53Zm0-26.94s0,.09.05.13l-.06-.23A.38.38,0,0,0,186.85,98.59Zm.79,44.25c.09.07.25.13.25.19a5.65,5.65,0,0,1-.15.91c-.11-.53-.16-.72-.19-.92S187.61,142.9,187.64,142.84ZM188,95.15l0,0,1.24-.48-.49,1Zm.83,17.15a2.55,2.55,0,0,0-.14.35s.1.08.17.12a2.37,2.37,0,0,0,.13-.34S188.9,112.35,188.84,112.3Zm.43-1.62a1.63,1.63,0,0,0-.11.23s.08.06.13.09Zm2.66,19.71s.14,0,.14-.07-.06-.22-.09-.33-.13,0-.13.07A1.59,1.59,0,0,0,191.93,130.39Zm.77,9a.64.64,0,0,1,.38,0,1.17,1.17,0,0,1-.07.38,2.33,2.33,0,0,1-.35.44c-.1-.11-.31-.23-.29-.3A1,1,0,0,1,192.7,139.43Zm1.39-54.84a5.13,5.13,0,0,0-.68,1.34c-.13.33-.28.63-.69.72-.11,1.09.43,2.21-.15,3.33.48-.33,1-.69,1.08-1.11A16.61,16.61,0,0,0,194.09,84.59Zm-1.36,43.11a.58.58,0,0,1,0-.16s.08,0,.13-.05a.49.49,0,0,1,.05.16S192.78,127.68,192.73,127.7Zm.35,11.62v0l.07.08-.06,0,.05,0h-.08Zm.11-13.34-.08-.17h.15Zm1.07-45a.59.59,0,0,0-.15,0,.65.65,0,0,0,0,.19s.1,0,.15,0A1.42,1.42,0,0,0,194.26,81Zm.76,28.08c0,.73,0,1.46,0,2.18C194.85,110.5,194.5,109.78,195,109.05Zm.08-.18s0,.06,0,.1,0,.06-.06.08v-.13A.16.16,0,0,1,195.1,108.87Zm.76-.65c-.09.26-.48.44-.77.65a27.73,27.73,0,0,1,1.55-5c.11.55.24.78.19,1C196.54,106,196.25,107.11,195.86,108.22Zm-.51-4.66a4.46,4.46,0,0,1,1-3,16.09,16.09,0,0,0,1.74-3.34,2.21,2.21,0,0,1,.51-.61,22.76,22.76,0,0,1-1,4.81A2.7,2.7,0,0,1,195.35,103.56Zm.85,38.59.23.54-.2,0Zm.41-49.22-.07.08.07.08Zm.26,38.37a1.42,1.42,0,0,0,0,.2l-.15.06a.59.59,0,0,1,0-.19S196.81,131.32,196.87,131.3Zm.8-42.92-.23-.39c-.12.12-.29.21-.37.36s.12.22.18.32C197.39,88.58,197.54,88.48,197.67,88.38Zm4.44,4.41c.54.49.09,1-.09,1.42a2.68,2.68,0,0,0-.36,2.11,2.68,2.68,0,0,1-.2,1.52c-.52,1.71-.62,3.54-1.71,5.08-.15.22-.06.58-.11.87-.09.58-.2,1.16-.31,1.77l-1.07-.11-.92,1.67c.15-3.25.55-6.39,2.5-9.15.6-.85.41-1.88.52-2.83C200.53,93.77,200.53,93.77,202.11,92.79Zm-3.94,26.45h.38c-.08.39-.17.79-.25,1.18l-.19,0C198.12,120,198.15,119.62,198.17,119.24ZM198.68,96c0,.1-.05.21-.07.32,0-.14,0-.29-.06-.43C198.6,96,198.68,96,198.68,96Zm-.05.49a.08.08,0,0,1,0,0,.28.28,0,0,0,0-.09h0a.36.36,0,0,0,0-.11,1.11,1.11,0,0,1,0,.17Zm.41-16a1.24,1.24,0,0,0-.18.14s0,.1.07.16Zm4.27,3.81c.17,1.77-.12,2.9-1.36,5.13a4.94,4.94,0,0,1,1.14-3.44,2.79,2.79,0,0,0-.1-.39c0-.07-.1-.12-.15-.18a1.18,1.18,0,0,0,.07.2l.16.39c-.19-.3-.52-.59-.57-.93S202.69,84.3,203.31,84.36Zm1.17-7.62c.61,2,.22,3.31-1.48,5.1C202.87,79.32,203.27,77.91,204.48,76.74Zm1.44-5.24c.19,1.34-.52,2.26-1.24,3.38-.23-.33-.48-.52-.44-.64C204.58,73.26,204.71,72.15,205.92,71.5Zm15.82-58.42L221.6,13l0,.13Zm2.32-2.8.19,0,.17-.09s-.12-.11-.14-.1A.77.77,0,0,0,224.06,10.28ZM233.69,12a58.29,58.29,0,0,0-9.61.94c.38.16.52.28.66.27,2-.08,4.1-.15,6.15-.29A5,5,0,0,0,233.69,12Zm5.46-2.23c-1.17-.52-1.17-.52-1.64,0Z"/><path class="cls-1" d="M326.59,163.19a.34.34,0,0,1,0,.33c-.17.12-.41.29-.56.25a12.91,12.91,0,0,1-4.43-1.84,17.86,17.86,0,0,0-8.14-2.68l-1.73-.15a1.63,1.63,0,0,0-1.29.39,1,1,0,0,1-1.26.07c-.71-.42-1.35-.92-2.06-1.28a2.67,2.67,0,0,0-2.65-.21,1.1,1.1,0,0,1-1.27-.13c-1-.65-1.88-1.34-2.86-2a19.78,19.78,0,0,0-1.83-.95l0,.07a1.34,1.34,0,0,1-.2,0,.58.58,0,0,0,.14,0,2.86,2.86,0,0,0-2.71-.94,1.89,1.89,0,0,0-.9-1.24c-1.05-.65-2.14-1.26-3.23-1.85a2.05,2.05,0,0,0-1-.17.63.63,0,0,0-.64.62l-.06-.13h0a.56.56,0,0,1,.07.13l-.07,0v-.11a1.89,1.89,0,0,1-1.66-.16,26.83,26.83,0,0,0-6.26-2.86,8.38,8.38,0,0,1-2.74-1.44,7.15,7.15,0,0,0-2.69-1.51,1.41,1.41,0,0,1-.74-.65,1.26,1.26,0,0,0-.76-.62,4,4,0,0,1-1.29-.45c-2.57-2-5.63-3.12-8.17-5.16A50.46,50.46,0,0,0,260,135a11.75,11.75,0,0,1-1.73-1.14,3.46,3.46,0,0,1-1.21-1.6,1.74,1.74,0,0,0-.81-1.38,10.77,10.77,0,0,1-4-3.78c-.21-.36-.94-.3-1.19.09a2.66,2.66,0,0,0-.49.88c-.43,2.37-1.28,4.64-1.65,7a27.06,27.06,0,0,1-1.31,5,24,24,0,0,0-.88,4l.9.25a.67.67,0,0,1,.53.75,27.79,27.79,0,0,1-1.2,5,6,6,0,0,1-.44.92c-.16.31-.41.62-.77.54s-.39-.48-.39-.85a1,1,0,0,0-.18-.55c-.12-.19-.61.15-.72.52a2.61,2.61,0,0,0-.19.66,1.83,1.83,0,0,1-1.61,1.91,1,1,0,0,0-.89.91,1.79,1.79,0,0,1-1.54,1.6c-.24.05-.48.47-.57.75-.16.54-.19,1.13-.34,1.67,0,.17-.3.29-.48.4s-.2-.08-.27-.16c-.21-.27-.41-.55-.62-.81a.69.69,0,0,0-.93,0c-.74.87-1.46,1.75-2.19,2.62l.08,0a6.83,6.83,0,0,0-1.3.43,5.34,5.34,0,0,1-3.72.37,4.34,4.34,0,0,1-2.79-1.94,3.35,3.35,0,0,1-.8-3.21c.33-.91-.15-1.82-.26-2.73a7.27,7.27,0,0,1,0-3.08,21.57,21.57,0,0,0,.56-3.77,21.25,21.25,0,0,1,1-5.8,9.22,9.22,0,0,0,.3-2,29.41,29.41,0,0,1,1-5.8,18.85,18.85,0,0,0,.43-2.74c.18-1,.43-2,.62-3a95.18,95.18,0,0,1,2.32-9.42,3.14,3.14,0,0,0,.13-.68A26.6,26.6,0,0,1,234,110a27.32,27.32,0,0,0,1-4.39c.52-3.19,1.25-6.34,2.08-9.49,1.43-5.48,3.19-10.86,4.76-16.31.44-1.55.76-3.15,1.08-4.74a56.32,56.32,0,0,1,2.2-7.66c.78-2.17,1.43-4.39,2.13-6.6.17-.54.27-1.11.42-1.72a3.82,3.82,0,0,0-.92-.52,12.19,12.19,0,0,1-5.83-2.87,53.74,53.74,0,0,1-8.09-8.08,15.69,15.69,0,0,1-1.35-2,2.52,2.52,0,0,1-.25-1.33c.11-1,.33-2,.48-2.95a4.28,4.28,0,0,1,2.61-1.08,13.51,13.51,0,0,0,4-1.11c3.9-1.75,8-3,11.94-4.66,1.5-.62,3-1.25,4.49-1.86a3.11,3.11,0,0,0,1.9-1.9c1.61-4.58,3.39-9.11,4.69-13.79A45,45,0,0,1,263.26,11a9.17,9.17,0,0,1,1.1-1.75,1.35,1.35,0,0,1,1.2-.55,13.05,13.05,0,0,1,4.7,1.16,13.36,13.36,0,0,0,4,1,19.31,19.31,0,0,1,9.86,3.9,44.5,44.5,0,0,1,6.07,4.61,2,2,0,0,0,1.6.54q2.94-.18,5.88-.44a66.22,66.22,0,0,1,9-.09,21.1,21.1,0,0,1,3.42.52,50,50,0,0,1,7.65,2.23,17.64,17.64,0,0,1,5.34,3.18c.86.76,1.72,1.55,2.62,2.27,4.22,3.44,6.5,8.07,7.89,13.18a11.46,11.46,0,0,1,.05,5.18c-.19,1-.39,2-.49,3.06s-.29,2-.42,3a7.63,7.63,0,0,0-.14,2,11.69,11.69,0,0,1-.63,4.06,6.08,6.08,0,0,1-1.92,3.24c-1.08.94-.86,2.26-1.28,3.38a1.28,1.28,0,0,1-.24,1.57c-1.14,1.44-2.48,2.72-3.56,4.22a3.69,3.69,0,0,1-1.36,1A9.52,9.52,0,0,0,319.75,75a5.47,5.47,0,0,1-1.21,1.24,1.3,1.3,0,0,1-.92.32,2.46,2.46,0,0,0-2.18.81,13.72,13.72,0,0,0-1.5,1.45,7.38,7.38,0,0,1-3.6,2.58A1.75,1.75,0,0,0,309,82.83a1.38,1.38,0,0,1-.87,1c-.4.2-1,.27-1.21.59a10.71,10.71,0,0,1-3.36,2.92,25.44,25.44,0,0,0-2.51,2.37c-.68.6-.48,1.21-.18,1.85a1.3,1.3,0,0,1,.67-1.08c.84-.58,1.68-1.15,2.49-1.77.13-.1.12-.38.17-.58a16.75,16.75,0,0,1-.41,2.13,1.3,1.3,0,0,0,0,.65c0,.23.64.26.9,0s.48-.48.71-.72.29-.38.47-.46a.94.94,0,0,1,.64,0,.35.35,0,0,1,.13.59c-.74.7-1.51,1.39-2.3,2-1.24,1-2.55,2-3.76,3A10.68,10.68,0,0,0,299.32,97a11.1,11.1,0,0,1-4.77,3.85,5.85,5.85,0,0,0-1.44.92c-1.11.8-2,1.86-3.16,2.6a1,1,0,0,0-.52,1.1.78.78,0,0,0,.89-.14c0,.32.08.68-.07.91a2.79,2.79,0,0,1-1,1,39.53,39.53,0,0,0-4.88,3.85,14.47,14.47,0,0,1-2.26,1.53,58.32,58.32,0,0,0-7.81,5.12.68.68,0,0,0,0,1.16c2.78,1.86,5.27,4.12,8,6.08,3.75,2.71,7.55,5.33,11.35,8a16.68,16.68,0,0,1,2.43,1.94,15.16,15.16,0,0,0,2.18,1.7c1.88,1.33,3.79,2.63,5.67,4a63.26,63.26,0,0,1,7.48,6.18c2.48,2.42,5.08,4.71,7.68,7a63.82,63.82,0,0,1,4.59,4.71A16.25,16.25,0,0,1,326.59,163.19Zm-91.63-3-.09,0,.29,0Zm11.79-16c-.14.39-.3.75-.43,1.14,0,0,.07.19.13.22.22.11.39,0,.46-.26A1.5,1.5,0,0,0,246.75,144.2Zm1.07-12.08a2.7,2.7,0,0,0,0-.28,1.29,1.29,0,0,0-.2.06c0,.16.07.33.11.5A2.39,2.39,0,0,1,247.82,132.12Zm.47,10.33.08.26-.2.15c0-.09-.09-.18-.07-.25S248.23,142.5,248.29,142.45Zm2.23-1.53a.42.42,0,0,1,0,.27c0,.08-.14.13-.21.19a1.07,1.07,0,0,1-.12-.27c0-.08.07-.16.11-.24S250.5,140.88,250.52,140.92Zm19.12-32.8.07-.12h-.15c.07-.31.23-.56.57-.42.12.05.17.32.25.49h-.14a.53.53,0,0,0,.06.1c.56-.21.94-.52.81-1.21,0-.1.25-.25.39-.42a2.15,2.15,0,0,1-.46-.33,1.26,1.26,0,0,0-1.2-.46,3.58,3.58,0,0,0-2.39,1.15,9,9,0,0,1-3.48,2.65,1.62,1.62,0,0,0-.55.37,1.26,1.26,0,0,0-.28.58c-.05.19.62.42.89.29a8.42,8.42,0,0,0,.92-.42c1.06-.61,2.13-1.24,3.18-1.86A1.15,1.15,0,0,1,269.64,108.12Zm-4-17.73c0,.3.52.56.77.41a6.52,6.52,0,0,0,.88-.55c4.36-3.62,8.88-7,13.11-10.83q5.16-4.64,10.42-9.16a30.8,30.8,0,0,0,5.06-5.21A10,10,0,0,1,297,63.8c1.5-1.44,3-2.91,4.54-4.28,3.76-3.3,6.83-7.24,10-11.05a31.42,31.42,0,0,0,3-4.67,9.45,9.45,0,0,0,1.28-3.93c.1-1.43-.49-2.13-2-2.09a37.78,37.78,0,0,0-6.54.59,71,71,0,0,0-11.39,3c-1.41.52-2.86.92-4.28,1.41s-3,1.11-4.56,1.65a3.14,3.14,0,0,0-2,1.85c-.27.63-.47,1.3-.7,1.95-1.37,3.8-2.55,7.68-5,11a5.77,5.77,0,0,0-.49.92c-1,2.06-2.13,4.09-3.09,6.2a73.89,73.89,0,0,1-4.82,9.2,20.12,20.12,0,0,0-2.23,4.29c-1,3-1.86,6-3,8.86A5.27,5.27,0,0,0,265.61,90.39ZM272,116.75c.86-.76,1.73-1.51,2.59-2.29a1.59,1.59,0,0,0,.59-1.51,1.06,1.06,0,0,1,.53-.78,31.9,31.9,0,0,0,5.56-4c.14-.09.16-.35.22-.56-1.06-.18-1.13-.16-1.7.77-.1-.56-.2-1.12-.31-1.68-.33,0-.71-.08-1,.06a14.41,14.41,0,0,0-1.66,1.25,1.4,1.4,0,0,0-.41,1.26s0,0,.06.07,0,0,0,0h0a6.28,6.28,0,0,0-1.29.34,47.35,47.35,0,0,0-6.06,4,.87.87,0,0,0-.07,1.44c.73.54,1.5,1,2.27,1.54A1.69,1.69,0,0,0,272,116.75Zm-1.92-13L270,104c-.47,0-.58.27-.59.6.23-.22.45-.44.67-.67Zm-.15,6.1h0Zm5-5.8a1.17,1.17,0,0,0,.54-1.16.8.8,0,0,0-.25-.58.72.72,0,0,0-.64,0c-.9.67-1.8,1.34-2.64,2.08a1.8,1.8,0,0,0-.43,2,1.65,1.65,0,0,1,1-1.13C273.37,104.85,274.2,104.5,275,104.06Zm-.43,2.59c-.19-.16-.34-.06-.53.15s-.24.4,0,.5c.07,0,.21,0,.29-.1a.72.72,0,0,0,.21-.25A.53.53,0,0,0,274.53,106.65Zm6.84-6.82a1.76,1.76,0,0,0-2.06-.46,8.76,8.76,0,0,0-2.6,1.58c-.11.11-.08.38-.07.58s.16.18.26.2a10.38,10.38,0,0,0,1.35.17A3.15,3.15,0,0,0,281.37,99.83Zm-1.61,8.63,0,0a.07.07,0,0,1,0,0h0l-.25-.14A1.23,1.23,0,0,1,279.76,108.46Zm-.21-1.78a.63.63,0,0,0,.73-.3C279.81,106.2,279.74,106.23,279.55,106.68Zm3.93-6.65c.11-.27.25-.54.34-.82s-.21-.75-.49-.69a5.74,5.74,0,0,0-1.54.47c-.2.11-.22.53-.31.84A5.4,5.4,0,0,0,283.48,100Zm-.35,6.41a4.89,4.89,0,0,1-.53.09,1,1,0,0,0-1,1c.24-.15.5-.28.73-.44S282.86,106.65,283.13,106.44ZM282,105v0h0Zm1.33,1.24-.08,0v0Zm2.8-6.67a.34.34,0,0,0-.48-.29c-.72.23-1.28.86-2.1.83,0,.55-.14,1.11.21,1.6.75-.62,1.76-.92,2.31-1.8A.5.5,0,0,0,286.12,99.6Zm-2.37,2.14h-.1v.09Zm2.46-12.83.13-.15-.16,0Zm18.84-5.73a4.45,4.45,0,0,1-1.19.38,2.75,2.75,0,0,0-2,1.15c-.35.42-.41,1.11-.81,1.45a12.18,12.18,0,0,1-1.79,1,2,2,0,0,0-.68.76,3.14,3.14,0,0,1-1.77,1.53,13.15,13.15,0,0,0-4.15,3,6.77,6.77,0,0,1-1,.92,1.68,1.68,0,0,1-.95.33c-1.28-.14-2,.26-2,1.65l-1.37,2c.21.07.43.24.62.19A4.54,4.54,0,0,0,290.57,96a2,2,0,0,1,1.74-.8,1,1,0,0,1,.75-.63.78.78,0,0,1,.75-.66,1.26,1.26,0,0,1,.8-.93,15.74,15.74,0,0,0,3.94-2.72c1.23-1,2.43-2.08,3.62-3.15.68-.61,1.32-1.26,2-1.9A3.14,3.14,0,0,0,305.05,83.18Zm-16.9,17-.08-.24-.14.2ZM290.64,98a1.6,1.6,0,0,0-1.32.6.44.44,0,0,0-.08.25c.18.09.39.25.56.22A1,1,0,0,0,290.64,98ZM291,90.7a8.6,8.6,0,0,0-.54.69,1.92,1.92,0,0,0-.19.54c.21,0,.44.15.62.09a1,1,0,0,0,.44-.42.42.42,0,0,0,0-.33A4.44,4.44,0,0,0,291,90.7Zm-.6,14.6-.06,0v-.06h.05Zm0,0,.82-.42C291.12,105.29,290.78,105.3,290.4,105.29Zm.69-14.6a.17.17,0,0,1,0-.1l-.08.09Zm.08,6.32-.09,0h0Zm.16,7.81-.11.05a.42.42,0,0,0,0-.12Zm1.23-.18q-.62.08-1.23.18l-.07-.06,1.28-.22h.09Zm4-11a4.82,4.82,0,0,0-1.14.16,3.57,3.57,0,0,1-1.58.21,1,1,0,0,1-.83.64l-.67.56c-.08.36-.15.72-.23,1.08a1.2,1.2,0,0,0,1.5-.06Zm.24,61.4a13.85,13.85,0,0,0,1.44,0,2.81,2.81,0,0,1-1.42.37,10.93,10.93,0,0,1-4-1.24c1-.46,1.9,0,2.78,0A1.36,1.36,0,0,0,296.83,155Zm-1.09-.85h-.06a.54.54,0,0,1-.05-.11h.07S295.73,154.16,295.74,154.19Zm1.56-61.32c-.41,0-.66.22-.54.67C297.18,93.5,297.39,93.29,297.3,92.87ZM300,91.23c-.8-.08-1.49.09-1.71,1a1.37,1.37,0,0,0,1.14-.33,1.5,1.5,0,0,1,1.52-.36A4.59,4.59,0,0,0,300,91.23Zm-1.31-6a3.41,3.41,0,0,0,.53-.13c-.06-.09-.12-.24-.16-.24a3.29,3.29,0,0,0-.54.14C298.54,85.06,298.6,85.21,298.65,85.21Zm2.05-1.42-.06-.2-.13.17Zm3.61,4.3h-.06v0Zm0,0a1.3,1.3,0,0,0,1.2-.24c.71-.56,1.4-1.12,2.13-1.63.11-.09.42,0,.58.13s.1.35-.15.51c-.65.45-1.31.88-1.94,1.33A1.5,1.5,0,0,1,304.31,88.09Zm8.53-11.89a1.94,1.94,0,0,0-.85-.07,3.91,3.91,0,0,0-2.16,2.05c-.08.14.05.41.12.61a.48.48,0,0,0,.33,0A9.63,9.63,0,0,0,312.84,76.2Zm0-.92c-.12.21,0,.55.06.85A3.17,3.17,0,0,0,314.56,75a15.17,15.17,0,0,1,2.82-2.49,6,6,0,0,0,1.91-2,3.73,3.73,0,0,0,.3-.89c-.2,0-.45-.1-.58,0A25.65,25.65,0,0,0,316,71.74,13.93,13.93,0,0,0,312.87,75.28Zm6.38,3.63c-.26.42-.71.22-1.07.29h0c.06.3.41.5.11.9s-.58.11-.87.11l-.16,0,.07-.09-.1-.08a.38.38,0,0,1,.18,0l.76-1C318.52,79,318.83,78.64,319.25,78.91Zm0,0h0s0,0,0,0a1.14,1.14,0,0,1,.24-1.05c.19.2.55.23.48.69s-.47.23-.7.34Zm.25-1.11h0l.07-.08.11,0Zm.14-8.18a1,1,0,0,0,1.09-.3c.44-.4.89-.81,1.32-1.24a1,1,0,0,0-1.15-.15C320.26,68.33,319.59,68.73,319.65,69.63Zm2.33-1.8.11.23,0,0Zm8.29-10.77.23-.07-.21-.11Z"/><path class="cls-1" d="M424,98.45h0c.24.34.66.61.42,1.15a6.53,6.53,0,0,0-.52,1.3.79.79,0,0,0,.29.71.77.77,0,0,0,.75-.1,18.45,18.45,0,0,0,1.33-1.79,11,11,0,0,0,.58-1.11l1.66-.07a30.34,30.34,0,0,1-4.09,10.89c-1.08,1.74-2.17,3.48-3.36,5.16a35.61,35.61,0,0,0-2.86,5.17c-1.37,2.82-3.56,5.09-5.14,7.75a4.7,4.7,0,0,0-.84,1.71,1.38,1.38,0,0,1-1.12,1.4,4,4,0,0,0-2.08,1.82c-2.11,2.75-4.09,5.6-6.23,8.34a44.76,44.76,0,0,1-3.29,3.47c-1,1-1.95,2-2.94,3a19.71,19.71,0,0,1-4.18,3.68,16.47,16.47,0,0,0-4.17,3.78,21.64,21.64,0,0,1-5.05,4c-2.29,1.5-4.62,2.92-6.91,4.41-.24.15-.32.55-.46.85l1.16.11c0,.58,0,1.08,0,1.82a4.68,4.68,0,0,0,1.56-.52,30,30,0,0,0,3-3,3.13,3.13,0,0,1,1.71-1.25c0,1.59-1,2.71-2,3.67a43.67,43.67,0,0,1-4.64,3.5,2.27,2.27,0,0,1-.46.3c-.42.18-.88.52-1.27.47-1.83-.23-3.5,1.33-5.37.43.32-.4.83-.76.45-1.6l-1.7,1.53,0-.07a4.3,4.3,0,0,0-1.64.37,4.21,4.21,0,0,1-4,.94,2.23,2.23,0,0,0-1.32.39,11,11,0,0,1-5.2,1.18c-1.48,0-3,.14-4.86.26l1.36-1.4c-.11-.14-.2-.4-.33-.41a15.93,15.93,0,0,0-2.83-.26c-4.2.23-7.47-1.73-10.51-4.3a17.66,17.66,0,0,0-2.19-1.79,27,27,0,0,1-5.26-4.29,11.15,11.15,0,0,1-3.54-7.49,7.39,7.39,0,0,0-.7-2.71c-1.31-2.84-.73-5.74-.37-8.63.05-.39.51-.73.8-1.07-.74-.44-1.47-.83-1.61-1.83a3,3,0,0,1,.6-2.38c.33-.45.69-.87,1.05-1.32-.75-1.16-1.59-2.22-.77-3.67.19-.34,0-.91-.07-1.37s-.13-.9.07-1.1c1.23-1.24.59-2.87,1-4.27.91-3.55,1.55-7.19,3.1-10.56.11-.26.35-.5.37-.76.17-2.54,1.81-4.48,2.75-6.7s2-4.48,3.05-6.69c.52-1.11,1.21-2.13,1.72-3.24.15-.32,0-.81-.11-1.72a3.71,3.71,0,0,0,1.3-.84,15.6,15.6,0,0,0,1.33-2.49c.26-.49.41-1.24.81-1.42a4.55,4.55,0,0,0,2.2-2.81,17.75,17.75,0,0,1,2.12-3.59,12.62,12.62,0,0,0,2.19-3.59,6.38,6.38,0,0,1,1.18-1.91c3.84-5,7.62-10.08,11.6-15a18.61,18.61,0,0,0,4.23-7.78c.82-3.65,5.22-9.77,9-12.31,1.1-.73,2.08-1.65,3.12-2.46a44.28,44.28,0,0,1,6.57-3.88A53.76,53.76,0,0,0,389.17,34c1.82-1.18,3.41-1.36,5.14.15A20.85,20.85,0,0,0,397.15,36c.63.4,1.21.85,2.09.52.3-.1.84.29,1.22.52.79.52,1.58,1,2.33,1.63a1.79,1.79,0,0,0,1.54.55c1.54-.4,2.42.62,3.53,1.5l-1.61.78a3.7,3.7,0,0,0,.52.79c.5.42,1.06.79,1.57,1.17.53-.13,1-.27,1.43-.35,1.1-.16,1.73.48,1.6,1.63-.17,1.52-.13,1.58,1.17,2a8.14,8.14,0,0,1,2.65.91c2.16,1.65,4.47,3.17,6.05,5.47a1.33,1.33,0,0,1-.05,1.57h0c-.32.93.47,1.31,1,1.84.11.12.35.11.52.17.64.25.93-1,1.75-.32a6.65,6.65,0,0,0,1.89.73A10.63,10.63,0,0,1,428.06,62a4.18,4.18,0,0,0,.91,2c1.37,1.93,1.41,2,.82,4.27l2.15,4.37-.83,1.35c-.37-.56-.67-1-1-1.46-.79.41-.54,1.66-1.53,1.85h0a5.48,5.48,0,0,1,.09,1.33c-.49,2.39-1,4.79-1.54,7.16-.34,1.46-.78,2.91-1.24,4.34a19.79,19.79,0,0,1-1.85,4.39,11.38,11.38,0,0,0-2,5.1A10.76,10.76,0,0,0,425,92a43,43,0,0,1,2.49-5.66,27.5,27.5,0,0,0,1.81-4.73,5.85,5.85,0,0,1,1.46-2.52,6.74,6.74,0,0,1-.79,4.2,22.1,22.1,0,0,0-2.18,6.94c.59.53.82-.12,1.4-.48l-.52,1.7,1.47.41c-.58,3-.58,3,.07,5-1.91-.25-1.91-.25-3.16.59-.22-.29-.43-.59-.65-.9-.75,0-1.55-.12-2.07.54A3.29,3.29,0,0,0,424,98.45Zm-96.16,44.76c-.06-1-.13-2-.2-3-.18.88-.39,1.75-.49,2.63C327.09,143.25,327.36,143.54,327.82,143.21Zm3.69,13c0-1.89,0-1.93-1.34-3C330.64,154.23,330.39,155.5,331.51,156.24Zm1.23,1.92c-.17-1-.35-1.6-1.16-1.77A1.66,1.66,0,0,0,332.74,158.16Zm8.19-11.51c.92-2-.07-3.42-.48-4.9A4.62,4.62,0,0,0,340.93,146.65Zm.49,4.21c-.09-1.86-.09-1.86-.93-2.65A2.85,2.85,0,0,0,341.42,150.86Zm5.11-31s.15.24.23.37c.06-.08.16-.15.16-.22a2.15,2.15,0,0,0,0-.43C346.74,119.71,346.59,119.78,346.53,119.9Zm1.12-1.25c-.5.06-.61.45-.71.86C347.49,119.49,347.52,119,347.65,118.65Zm35.6,3.46c2.86-4.76,6.27-9.19,8.83-14.15.34-.66.71-1.31,1.06-1.95l1.51.3a10.58,10.58,0,0,1,1.12-2.2,13,13,0,0,0,2.36-4.75,19.12,19.12,0,0,1,2.41-4.72c1.46-.5,1.59-2,2.18-3.06.29-.57.23-1.31.53-1.88a55.15,55.15,0,0,0,2.44-6.11c.61,0,1.23.17,1.29-.68a2.13,2.13,0,0,0,0-.83c-.47-1.2,0-2.1.6-3.15a15.35,15.35,0,0,0,1.89-4.69,33.92,33.92,0,0,0,.39-8.72,2.79,2.79,0,0,0-2.79-2.66,5.77,5.77,0,0,0-3.4,1.24c-.65.38-1.17,1-1.84,1.32A33.2,33.2,0,0,0,395.39,70a39.7,39.7,0,0,1-3.3,2.67c-4.34,2.88-8.35,6.18-12.38,9.43-.36.29-.85.71-1.2.64a1.8,1.8,0,0,0-1.74.49c-.71.65.18,1.23,0,1.82a9.53,9.53,0,0,0-2.61,1.52c-1.36,1.54-2.47,3.28-3.68,5,0,1.72-1.42,2.48-2.31,3.64-1.17,1.54-3.2,2.46-3.46,4.67,0,.21-.37.41-.58.59-1.35,1.14-1.53,3-2.65,4.29-.5.55,0,1.06-.06,1.57-.1.85-1,1.31-.95,2.3a3.63,3.63,0,0,1-.62,2.1,8.92,8.92,0,0,0-1.15,4.23l1,.67h0c-.69,1.11-1.35,2.25-2.09,3.32a46.8,46.8,0,0,0-4.39,8.82,62.74,62.74,0,0,0-3.84,11.79,18.24,18.24,0,0,1-1,2.91c-1.25,3.27-1.6,6.55-.08,9.8a3.3,3.3,0,0,0,3.06-.55c3.09-1.8,6.34-3.38,9.05-5.78q3.71-3.29,7.46-6.52a39.57,39.57,0,0,0,6.47-7.09c.33-.46.62-1.05,1.08-1.29,1.52-.77,2.3-2.2,3.24-3.49a18.24,18.24,0,0,1,3.69-4.25A4.07,4.07,0,0,0,383.25,122.11ZM363.3,96.18c1.38-1.48,1.85-3.37,2.38-5.23,0-.1-.17-.27-.37-.56-.33.36-.65.68-.93,1-2.36,3-4.81,6-6.87,9.3-2.26,3.59-4.7,7.06-7.07,10.57a16.17,16.17,0,0,0-2.63,7.08c1.56-2.48,3.26-4.89,4.63-7.47A68.79,68.79,0,0,1,363.3,96.18Zm-3.62,19.38,0,0,0-.67C359.67,115.12,359.67,115.33,359.68,115.56Zm9.63,54,.07,0-.05,0Zm6.29-5.5c-1.22-.25-2,.61-2.82,1.22a1.17,1.17,0,0,0-.53,1.49C373.64,166.14,374.51,165,375.6,164Zm43.53-55.36c.39-.64.86-1.22,1.33-1.86l-1.17-3.74c-.67.86-1.17,1.39-1.54,2-.53.86-1.57.5-2.14,1-.41-.28-.78-.53-1.14-.79l.27-1.31-1.24-.11h0c.24-.4.67-.77.69-1.18.08-1.7,1.24-2.88,1.94-4.28a11,11,0,0,1,1.44-1.73,2,2,0,0,0,.23-2.28,1.81,1.81,0,0,0-1.59,1.21c-.63,1.57-1.3,3.12-2,4.67-.09.18-.32.29-.63.57a3.63,3.63,0,0,1,0-1c.41-1,.83-2.08,1.32-3.1a64.73,64.73,0,0,0,3.34-6.79c.49-1.42,1.16-2.78,1.7-4.17.16-.4.37-.91-.29-1.16l-1.15,1.24c-.57-1.07.78-1.93.24-3.11a6.91,6.91,0,0,0-2,3.5c-.4,2.24-1.71,3.89-2.86,5.68s-2.22,3.69-3.5,5.83c0-.88-.08-1.45-.12-2-2.1-.15-3,1.24-3.9,2.53-.25.36-.47.86-.83,1a1.19,1.19,0,0,0-.86,1,5.24,5.24,0,0,1-.61,1.85,51.88,51.88,0,0,0-4.52,8.4c-.09.22-.4.34-.61.52.54.31.94,1,1.55.65l5.1-7.43c-.24,2.92-1.53,4.83-1.79,7-.95.84-2.23,1.29-2.35,2.7l.07-.06h0l0,.09,0,0c-.73,1-1.47,2-2.16,3a3.17,3.17,0,0,0-.29,1v0a3.9,3.9,0,0,0-1.81,2.61,1.41,1.41,0,0,0-1.16.88c-.34.73-.63,1.48-.94,2.22l1.61,1.18a3,3,0,0,1-.87.64,1.83,1.83,0,0,0-1.44,2c0,.17-.3.35-.61.7.12-1.32.22-2.37.32-3.43l0,0,0,0a22.6,22.6,0,0,0-4.61,5.6,16.18,16.18,0,0,1-2.21,3.23c-.67.68-1.17,1.44-1.78,2.12-1.57,1.76-2.55,3.95-4.46,5.44-1.16.91-1.74,2.28-2.47,4.11a11.59,11.59,0,0,0,3.14-3.12c.42-.5.71-1.24,1.24-1.51,1.89-.95,2.82-2.72,4-4.31s2-3,3-4.45c.7-1,1.46-1.94,2.18-2.89l1.19.48a1.88,1.88,0,0,1-.12.56,56.35,56.35,0,0,0-2.91,5.11c-1,2.35-2.06,4.62-4.19,6.23a12.42,12.42,0,0,0-1.07,1.29c-1.22,1.23-2,3-3.9,3.44-.25.06-.4.54-.58.84-.28.46-.55.95-.78,1.35l2.09.79h0a5.15,5.15,0,0,0-2.25,2.74,2.23,2.23,0,0,1-.53.95c-1.53,1.48-3.1,2.93-4.66,4.4-.23.21-.44.45-1.05,1.09a6.34,6.34,0,0,1,1.81-.39,6.2,6.2,0,0,1,1.48.63c.69-.68,1.26-1.29,1.89-1.82a13,13,0,0,1,1.39-.87c-.13,1.13-1.06,1.71-1.7,2.48-.28.34-.75.62-.45,1.17.18,0,.41.1.51,0,1.25-1,2.52-1.89,3.71-2.91a12.4,12.4,0,0,0,1.42-1.71c.41-.51.21-1,0-1.46l-2.54,1.53a12.27,12.27,0,0,1,1.63-2.27,4.75,4.75,0,0,0,1.7-4.11l.08.06a.33.33,0,0,0-.08-.06l.08,0a.31.31,0,0,0,0,.09,3.11,3.11,0,0,1,.28-.23l-.3.13,0-.26.33.13a5.15,5.15,0,0,0,1.2-.94c1.57-2,3.08-4,4.6-6.08.45-.6.77-1.45,1.38-1.75a3.16,3.16,0,0,0,1.39-1.94c.07-.16.39-.2.91-.45-.22.81-.32,1.35-.5,1.84a10.24,10.24,0,0,0-.68,1.53c-.1.52.15,1.07-.28,1.59-.83,1-1.59,2.09-2.41,3.11-.46.58-.91,1.24-1.83,1.08l.06.05,0,.09s0,0,0-.08c-.73.27-.75.31-.41,1.1l.05,0v0l-.05-.09c.16.57.31,1.13.48,1.72.84-.36,1.18-.83,1.1-1.56a24.61,24.61,0,0,0,4.44-2.84,1.8,1.8,0,0,0,.21-.19c1.45-1.6,2.89-3.22,4.34-4.82a14.83,14.83,0,0,0,2.34-3.42c-.52-.38-.94-.72-1.4-1-.05,0-.2.1-.33.21a9.48,9.48,0,0,0,0-1.6,13.39,13.39,0,0,0-.51-1.81l1.6-.71c0-.85-.44-1.66.21-2.56,1.07-1.48,2-3.11,2.95-4.66a1,1,0,0,1,1.46-.3c-.28.33-.82.76-.75.94.38.91-.2,1.53-.5,2.25-.17.41-.29.85-.42,1.28a18.87,18.87,0,0,0,1.74-2c2.23-3.14,4.38-6.35,6.61-9.49.73-1,1.61-2,2.42-3-1.1,3.91-3.93,6.77-5.69,10.25s-4.66,6.27-6.12,10a3.13,3.13,0,0,0,1.57-1,21.11,21.11,0,0,1,4.55-4.55,21,21,0,0,0,3.95-5.14c1.84-3,3.52-6,5.26-9,.28-.48.59-1,.85-1.46a2.49,2.49,0,0,0,.38-2.15A2.44,2.44,0,0,1,419.13,108.67Zm-37.3,40.27h0c0-.22,0-.45,0-.73Zm1.37,12.2-.06,0s0,0,0-.08h.11Zm.06-.06c.69-.77,1.27-1.66,2.36-1.92C385.09,160.93,385,161,383.26,161.08Zm2.08-10a2.9,2.9,0,0,0-1.91,2.11C385.17,152.81,385.19,152.77,385.34,151Zm.24-5.26c0,.07.08.15.06.2a.47.47,0,0,1-.14.18.6.6,0,0,1-.06-.22C385.45,145.88,385.53,145.84,385.58,145.78Zm.14,13.34-.1,0s0-.07,0-.11h.12Zm.72-.1c-.12.12-.41,0-.66,0l3.41-3.85c-.17.77-.14,1.06-.27,1.21C388.12,157.3,387.3,158.18,386.44,159Zm0-10.49-.2-.08-.33.33c.08,0,.17.09.2.07A3.31,3.31,0,0,0,386.41,148.53Zm2.12-.74-.55-.36c.13-.35.24-.7.37-1.05Zm3.68-12c.08.32.2.54.14.68a10,10,0,0,1-2.68,3.79c-.1.1-.46.11-.5,0s-.27-.58-.17-.69C390.09,138.43,390.8,136.88,392.21,135.83Zm5.47-13.3c-.39.82-.68,1.46-1,2.12a1.83,1.83,0,0,1,.05-2C396.84,122.49,397.21,122.56,397.68,122.53Zm-1,2.11.05.09-.06,0Zm.05.09-.05,0h0Zm.49-10.32c-.14.34-.24.68-.35,1a6,6,0,0,0,1.49-1.38,2.78,2.78,0,0,0,.55-3.08C398.82,112.35,397.7,113.23,397.24,114.41Zm.05,6.08h-.11l.09-.08S397.28,120.45,397.29,120.49Zm0,0a4.3,4.3,0,0,1,.72.09,3.1,3.1,0,0,1,.69.35c-.32.24-.58.6-.79.57C397.36,121.42,397.37,120.91,397.29,120.49Zm9.75-5.25c-1.11,1.71-2.25,3.41-3.33,5.14-1.23,2-2.4,4-3.59,6a7.13,7.13,0,0,1-.94,1.38,1.28,1.28,0,0,1-1,.17c-.46-.09-.49-.44-.27-.85.12-.24.31-.62.21-.77-.78-1.19.38-2,.61-2.93.12-.53.53-.1.85-.09a1.35,1.35,0,0,0,.88-.54,9.48,9.48,0,0,0,1.24-1.87,9.06,9.06,0,0,1,2-2.68c.66-.66,1.19-1.44,1.8-2.15C405.9,115.58,406.31,115.07,407,115.24ZM399,135.54l-1.09.59C398,135.25,398.53,135.5,399,135.54Zm0-17.73h0a3,3,0,0,0,0,.52c0,.48.79.8.33,1.39-.32.4-.61-.53-.44-1.39A5.11,5.11,0,0,1,399,117.81Zm0,17.72.07-.06v.09H399Zm1.14-4.1c-.29.34-.79.63-.26,1.2,1.25-1.28,1.25-1.28,1.4-2.54Zm1.32-15.8a2.28,2.28,0,0,1,0-1.74C402.19,114.62,402.18,114.66,401.49,115.63Zm1.34,12.77a3.09,3.09,0,0,0-.55.4s0,.16.05.23a6.26,6.26,0,0,0,.51-.39,1.41,1.41,0,0,0,.14-.18C402.92,128.43,402.86,128.39,402.83,128.4Zm0-15.23-.08-.26a1.7,1.7,0,0,1,.34.07s0,.15,0,.24Zm.23-76.08a1.31,1.31,0,0,1,0-.19,4.34,4.34,0,0,1,.51,0c0,.06,0,.2,0,.2A4.35,4.35,0,0,1,403.08,37.09Zm1.7,86.75c0-.17-.09-.34-.12-.51a2.06,2.06,0,0,1,0-.26,1.05,1.05,0,0,1,.15.24,4.3,4.3,0,0,1,0,.51h0Zm1.27-27.79a1.21,1.21,0,0,0,0,.25c.07,0,.19,0,.19-.06a.72.72,0,0,0,0-.25C406.18,96,406.06,96,406.05,96.05Zm1,7.62c-.26-1.89,1-2.79,2.28-4A7.17,7.17,0,0,1,407,103.67Zm0,11.51.09-.14a1.49,1.49,0,0,1,0,.21l-.1,0Zm.14-.57c.06,0,.16.14.14.16a1.65,1.65,0,0,1-.19.27A3.34,3.34,0,0,0,407.21,114.61Zm3-.29h0s0,0,0,0a2.64,2.64,0,0,1-.78,2.52,11.28,11.28,0,0,0-1.54,2.12c0-1.64,0-1.64.94-2.66C409.35,115.71,410.24,115.35,410.17,114.32ZM408.39,126l.3,0a.78.78,0,0,1-.07.23s-.12,0-.18,0A1.89,1.89,0,0,1,408.39,126Zm.94-37a4.54,4.54,0,0,0-.22,1.23,2.6,2.6,0,0,0,2-2c.62-1.74,1.31-3.46,2-5.19,0-.36,0-.74,0-1.1H413c0,.38,0,.74.05,1.12-.25.06-.65.06-.74.22C411.28,85.16,410.29,87.06,409.33,89Zm3.05,22.58a3.07,3.07,0,0,1,1.07-1c-.71,1.57-.72,3.75-3.26,3.75C411.36,113.74,411.69,112.51,412.38,111.55Zm-1.53-17.8.21,0c0-.08,0-.16,0-.24C411,93.56,410.91,93.66,410.85,93.75Zm.56,12.49a3.79,3.79,0,0,1,1.21-4C412.48,105.12,412.48,105.12,411.41,106.24Zm1.48-8.52,0,.23-.15,0Zm.55-7.89c.58-1.42,1.81-2.6,1.54-4.27C414.1,86.86,413,88.09,413.44,89.83Zm0,14h0v.07Zm0,.47c0-.13,0-.27,0-.41a.47.47,0,0,1,.06.19A.94.94,0,0,1,413.47,104.34Zm.26-8.48-.14.42c0-.08-.11-.19-.1-.21S413.65,95.92,413.73,95.86Zm.13-.13-.12.12a1.06,1.06,0,0,0,.06-.19l.12-.12a1.06,1.06,0,0,0-.06.19Zm1-1.22c-.32.34-.64.69-1,1a1.16,1.16,0,0,1,.9-1Zm-.12-.41c0,.11,0,.23,0,.33a.28.28,0,0,1-.09-.13S414.72,94.17,414.75,94.1Zm.12.41-.06,0,0-.11ZM415.73,84a.61.61,0,0,0,.06.21l.09-.37C415.83,83.88,415.75,83.92,415.73,84Zm3.36,13.64c2-1.19,2.13-1.5,1.8-3.41C419.76,95,418.85,96,419.09,97.62Zm1.45,10.84a.66.66,0,0,0-.06-.22c-.05.05-.13.1-.15.16a.6.6,0,0,0,.06.22C420.44,108.57,420.53,108.53,420.54,108.46Zm1.39-34.21c-1.27,1.39-.71,3-1.27,4.28C421.27,77.26,422.13,76.05,421.93,74.25Zm-1,19.86c1.1-.13,1.18-.29.66-1.49A1.71,1.71,0,0,0,420.93,94.11Zm.07,8.28.38.38a6.67,6.67,0,0,0,.39-.66s-.09-.16-.14-.23C421.42,102.06,421.2,102.22,421,102.39Zm.21-47.7v0c.54.2,1.21-.59,1.75.39C422.3,54.91,421.75,54.8,421.21,54.69ZM422.07,91l-.42,1.5C422.34,92.15,422,91.48,422.07,91Zm0-20.4.66.78c.12-.21.32-.41.33-.62s-.18-.42-.28-.63Zm1.84,27.91-.33.22.32.16C423.88,98.73,423.89,98.61,423.89,98.48ZM424.14,86h0c0,.45,0,.89,0,1.33l.29,0Zm2.51-6.29c-.86,2-1.95,3.64-2.09,5.63,0,.23-.26.44-.41.66.32-.14.81-.2.92-.43.71-1.62,1.34-3.25,2-4.9C427.08,80.55,426.87,80.27,426.65,79.75Zm-.29,14.17a1.2,1.2,0,0,0-.22,1,.85.85,0,0,0,.61.47,1.76,1.76,0,0,0,1.65-.87c.31-.48.62-1,0-1.65A16.63,16.63,0,0,0,426.36,93.92Zm2.08-23.23a4.91,4.91,0,0,0-.27,1.21c.09.81.28,1.6.42,2.39C429.4,73.16,429.28,72.05,428.44,70.69Zm4.38,17.77c0,.06-.13.11-.21.16-.05-.16-.11-.32-.16-.49l.37-.17A2.78,2.78,0,0,1,432.82,88.46Z"/></g></g></svg>